<?xml version="1.0" standalone="no"?>
<!DOCTYPE svg PUBLIC "-//W3C//DTD SVG 20010904//EN"
 "http://www.w3.org/TR/2001/REC-SVG-20010904/DTD/svg10.dtd">
<svg version="1.0" xmlns="http://www.w3.org/2000/svg"
 width="1024.000000pt" height="1024.000000pt" viewBox="0 0 1024.000000 1024.000000"
 preserveAspectRatio="xMidYMid meet">
<metadata>
Created by potrace 1.11, written by Peter Selinger 2001-2013
</metadata>
<g transform="translate(0.000000,1024.000000) scale(0.100000,-0.100000)"
fill="#000000" stroke="none">
<path d="M4858 10235 c-2 -1 -48 -6 -103 -9 -152 -9 -369 -34 -457 -52 -13 -2
-50 -9 -83 -14 -33 -5 -71 -12 -85 -15 -14 -4 -36 -8 -50 -11 -50 -10 -65 -13
-85 -18 -114 -27 -156 -38 -260 -66 -102 -29 -293 -92 -465 -155 -191 -69
-543 -241 -759 -369 -506 -302 -874 -615 -1310 -1111 -116 -132 -353 -463
-466 -649 -181 -302 -343 -646 -455 -971 -69 -202 -140 -458 -174 -635 -2 -14
-9 -47 -15 -75 -6 -27 -13 -66 -16 -85 -12 -77 -34 -238 -40 -285 -3 -27 -8
-63 -10 -80 -26 -192 -26 -857 0 -1016 2 -13 6 -51 10 -84 3 -33 8 -76 10 -95
11 -75 27 -176 32 -205 3 -16 7 -39 8 -50 7 -43 16 -89 20 -94 2 -4 6 -24 9
-46 6 -38 48 -203 96 -380 33 -121 136 -403 208 -570 94 -219 198 -422 317
-618 31 -51 61 -101 68 -112 7 -11 14 -22 17 -25 3 -3 27 -39 54 -80 93 -142
287 -395 391 -510 181 -201 461 -476 537 -528 13 -9 30 -23 38 -32 8 -9 83
-68 165 -132 586 -450 1273 -773 1990 -933 17 -4 39 -9 50 -12 11 -2 29 -6 40
-8 50 -8 91 -16 105 -20 8 -2 33 -6 55 -10 22 -3 65 -10 95 -15 51 -9 73 -12
185 -25 209 -25 304 -29 590 -30 244 0 442 8 503 20 10 2 51 6 91 10 40 3 80
8 89 10 9 1 40 6 67 9 87 11 366 66 490 97 425 105 911 297 1258 498 49 28 91
51 93 51 6 0 88 53 262 167 107 71 321 227 332 242 3 4 21 18 40 31 19 13 37
27 40 30 3 4 41 37 85 75 440 377 832 858 1122 1374 61 109 223 432 223 445 0
3 11 29 25 58 14 28 25 56 25 60 0 5 8 28 19 51 99 222 249 755 287 1017 3 19
7 46 9 60 11 59 22 141 31 225 3 33 7 71 10 85 25 155 25 851 0 1000 -3 14 -7
52 -10 85 -8 77 -15 133 -21 165 -3 14 -7 43 -10 65 -3 22 -8 51 -11 65 -2 14
-6 36 -9 50 -3 14 -9 50 -15 80 -16 86 -16 87 -54 238 -65 257 -165 555 -250
747 -12 28 -29 66 -36 85 -25 63 -169 347 -232 458 -122 214 -339 527 -513
739 -158 192 -454 490 -625 629 -19 16 -37 31 -40 35 -3 3 -57 46 -120 95
-510 398 -1067 684 -1706 878 -63 19 -357 93 -399 100 -16 2 -68 12 -115 21
-47 8 -101 18 -120 21 -19 2 -46 7 -60 9 -14 3 -47 7 -75 11 -27 3 -61 7 -75
9 -14 2 -56 7 -95 11 -38 3 -90 8 -115 10 -53 6 -647 14 -652 9z"/>
</g>
</svg>
