<?xml version="1.0" standalone="no"?>
<!DOCTYPE svg PUBLIC "-//W3C//DTD SVG 20010904//EN"
 "http://www.w3.org/TR/2001/REC-SVG-20010904/DTD/svg10.dtd">
<svg version="1.0" xmlns="http://www.w3.org/2000/svg"
 width="1024.000000pt" height="1024.000000pt" viewBox="0 0 1024.000000 1024.000000"
 preserveAspectRatio="xMidYMid meet">
<metadata>
Created by potrace 1.11, written by Peter Selinger 2001-2013
</metadata>
<g transform="translate(0.000000,1024.000000) scale(0.100000,-0.100000)"
fill="#000000" stroke="none">
<path d="M4858 10235 c-1 -1 -46 -5 -99 -9 -130 -8 -383 -36 -460 -51 -13 -3
-51 -10 -84 -15 -33 -5 -71 -12 -85 -15 -14 -4 -36 -8 -50 -11 -50 -10 -65
-13 -85 -18 -114 -27 -156 -38 -260 -66 -103 -29 -310 -98 -465 -154 -104 -39
-276 -116 -440 -197 -1039 -519 -1877 -1386 -2367 -2449 -88 -191 -195 -473
-244 -645 -55 -190 -91 -332 -113 -445 -2 -14 -9 -47 -15 -75 -6 -27 -12 -63
-15 -80 -2 -16 -9 -59 -14 -95 -17 -105 -21 -134 -27 -196 -4 -32 -8 -70 -10
-83 -26 -154 -26 -856 0 -1012 2 -13 6 -49 9 -79 8 -79 15 -129 37 -265 29
-174 30 -178 33 -184 2 -3 7 -23 10 -44 3 -22 20 -94 37 -160 17 -67 32 -129
34 -137 10 -47 81 -264 125 -385 195 -534 470 -1017 834 -1470 82 -102 115
-139 221 -254 596 -642 1339 -1118 2165 -1388 195 -63 467 -134 610 -158 19
-3 42 -8 51 -11 9 -2 34 -7 55 -9 22 -3 64 -10 94 -15 56 -10 94 -15 190 -25
30 -4 71 -8 90 -10 229 -27 862 -27 998 0 10 2 51 6 91 10 40 3 80 8 89 10 9
1 40 6 67 9 374 48 905 199 1290 366 106 46 394 190 468 234 43 25 80 46 83
46 14 0 366 235 479 319 801 600 1409 1420 1751 2362 96 265 199 654 229 866
3 21 8 49 10 63 13 70 24 152 40 305 26 250 27 847 1 1005 -2 14 -7 52 -10 85
-8 80 -15 135 -21 165 -3 14 -7 43 -11 65 -16 117 -45 257 -85 418 -140 563
-362 1075 -676 1556 -273 417 -648 844 -983 1117 -19 16 -37 31 -40 35 -3 3
-57 46 -120 95 -510 397 -1068 685 -1706 878 -63 19 -358 93 -399 100 -16 2
-55 9 -85 15 -30 6 -68 13 -85 16 -16 2 -39 7 -50 9 -11 2 -45 7 -75 11 -30 4
-62 8 -70 10 -41 7 -112 15 -175 21 -38 3 -90 8 -115 10 -54 6 -647 14 -652 9z
m632 -350 c173 -16 333 -35 338 -40 1 -1 -37 -10 -85 -20 -166 -32 -343 -95
-517 -181 -206 -103 -357 -214 -531 -388 -518 -520 -820 -1313 -949 -2496 -8
-74 -18 -175 -21 -225 -4 -49 -8 -101 -10 -115 -2 -14 -7 -88 -10 -165 -4 -77
-9 -148 -11 -158 -1 -10 -4 -59 -5 -110 -1 -55 -6 -95 -13 -99 -6 -4 -7 -8 -1
-8 11 0 11 -129 0 -320 -21 -371 -98 -693 -235 -975 -199 -412 -525 -716 -963
-899 -103 -43 -133 -54 -277 -97 -101 -30 -275 -66 -400 -83 -63 -8 -133 -18
-155 -21 -68 -10 -575 -14 -670 -5 -286 27 -345 34 -353 39 -6 3 -30 71 -55
151 -156 495 -222 928 -222 1455 0 227 6 334 30 565 26 244 150 812 187 858 6
6 8 12 5 12 -8 0 70 226 112 325 5 11 21 52 37 90 91 227 255 533 419 780 199
301 392 533 666 800 606 591 1374 1014 2194 1210 55 14 116 27 135 30 19 3 54
10 78 16 23 5 57 11 75 14 17 3 48 8 67 11 128 21 304 41 352 40 31 -1 54 2
52 6 -3 4 28 9 68 10 102 5 601 0 668 -7z m793 -130 c170 -43 382 -108 477
-145 25 -10 99 -39 165 -65 129 -51 407 -183 491 -233 28 -16 78 -45 110 -62
48 -27 291 -185 394 -257 193 -134 567 -463 553 -486 -3 -5 -1 -7 4 -4 10 6
114 -95 221 -214 191 -216 429 -548 574 -804 357 -628 565 -1315 615 -2030 10
-142 10 -518 0 -660 -39 -561 -173 -1101 -403 -1625 -43 -98 -184 -373 -200
-391 -8 -8 -14 -19 -14 -23 0 -11 -92 -164 -164 -271 -60 -91 -216 -305 -221
-305 -2 0 4 21 12 48 120 377 122 763 7 1174 -225 805 -893 1606 -1905 2285
-246 165 -532 336 -759 454 -121 63 -263 173 -422 328 -76 74 -136 136 -135
138 2 1 -16 24 -40 49 -24 26 -43 53 -43 60 0 8 -4 14 -9 14 -17 0 -131 182
-192 305 -68 140 -119 288 -150 441 -25 125 -35 453 -18 584 68 519 315 1085
733 1678 l51 73 46 -6 c25 -3 125 -25 222 -50z m-1000 -3974 c490 -126 681
-706 360 -1096 -198 -240 -544 -314 -824 -175 -168 83 -284 217 -347 400 -23
66 -26 91 -27 210 0 123 3 142 29 218 59 173 198 328 360 401 134 61 309 77
449 42z m1442 -1892 c348 -42 689 -191 990 -434 98 -80 270 -251 360 -358 183
-218 386 -553 510 -842 27 -60 56 -128 65 -150 10 -22 26 -63 36 -91 l18 -51
-33 -40 c-52 -65 -357 -361 -466 -452 -189 -158 -469 -358 -635 -454 -108 -63
-226 -126 -234 -126 -5 1 -12 -4 -15 -9 -9 -15 -226 -117 -401 -189 -167 -69
-505 -180 -630 -207 -14 -3 -74 -17 -135 -31 -60 -14 -126 -27 -145 -29 -19
-2 -42 -6 -50 -10 -16 -6 -269 -42 -355 -51 -364 -36 -806 -26 -1169 26 -136
19 -433 76 -449 86 -4 2 -20 7 -35 9 -115 20 -543 164 -697 234 -11 5 -72 32
-135 61 -353 158 -727 394 -1065 673 -150 124 -471 444 -597 596 -232 281
-418 558 -581 870 -58 111 -187 391 -187 406 0 3 48 -43 108 -103 537 -543
1251 -755 2128 -632 704 98 1481 403 2384 937 435 257 790 369 1180 371 80 1
186 -4 235 -10z"/>
</g>
</svg>
