<?xml version="1.0" standalone="no"?>
<!DOCTYPE svg PUBLIC "-//W3C//DTD SVG 20010904//EN"
 "http://www.w3.org/TR/2001/REC-SVG-20010904/DTD/svg10.dtd">
<svg version="1.0" xmlns="http://www.w3.org/2000/svg"
 width="1024.000000pt" height="1024.000000pt" viewBox="0 0 1024.000000 1024.000000"
 preserveAspectRatio="xMidYMid meet">
<metadata>
Created by potrace 1.11, written by Peter Selinger 2001-2013
</metadata>
<g transform="translate(0.000000,1024.000000) scale(0.100000,-0.100000)"
fill="#000000" stroke="none">
<path d="M4755 10229 c-1472 -104 -2841 -851 -3729 -2034 -926 -1233 -1247
-2816 -875 -4313 305 -1228 1070 -2314 2124 -3019 1319 -881 2963 -1101 4470
-598 1861 621 3208 2263 3454 4211 244 1931 -623 3828 -2242 4905 -752 500
-1592 786 -2497 849 -169 11 -532 11 -705 -1z m883 -353 c79 -9 160 -20 180
-24 35 -8 33 -9 -50 -25 -285 -56 -570 -180 -820 -357 -109 -77 -314 -272
-405 -385 -409 -511 -664 -1228 -778 -2195 -43 -361 -61 -619 -75 -1075 -15
-467 -47 -685 -141 -969 -228 -689 -738 -1131 -1499 -1299 -270 -60 -395 -72
-775 -72 -272 1 -383 4 -499 18 -83 10 -153 20 -157 23 -15 9 -100 285 -144
467 -101 415 -129 663 -130 1132 0 435 22 654 101 1018 232 1072 824 2029
1674 2712 760 610 1644 961 2630 1045 162 13 721 5 888 -14z m454 -71 c1446
-304 2665 -1248 3317 -2568 257 -522 411 -1061 473 -1657 20 -189 17 -775 -5
-965 -99 -868 -406 -1656 -914 -2340 -47 -64 -87 -114 -90 -112 -2 3 3 22 11
43 100 260 127 630 70 958 -125 724 -621 1467 -1412 2116 -379 310 -807 590
-1335 874 -111 60 -261 179 -403 321 -524 522 -697 1140 -524 1873 28 117 105
349 157 472 70 165 214 440 321 612 81 132 252 388 259 388 1 0 35 -7 75 -15z
m-797 -4021 c235 -61 426 -253 491 -494 23 -87 23 -253 0 -340 -65 -241 -255
-431 -496 -496 -87 -23 -253 -23 -340 0 -445 119 -652 623 -419 1018 100 171
287 296 488 328 71 11 198 4 276 -16z m1360 -1884 c376 -35 718 -172 1032
-416 118 -92 321 -295 422 -423 213 -269 399 -596 546 -958 l58 -143 -103
-110 c-262 -282 -620 -577 -943 -779 -638 -397 -1307 -627 -2072 -711 -163
-18 -622 -24 -806 -11 -1460 107 -2757 843 -3597 2042 -172 246 -371 607 -481
872 l-41 98 102 -106 c353 -369 800 -596 1325 -672 174 -25 581 -25 763 0 744
103 1505 394 2390 915 399 235 668 342 981 387 174 25 277 28 424 15z"/>
</g>
</svg>
