<?xml version="1.0" standalone="no"?>
<!DOCTYPE svg PUBLIC "-//W3C//DTD SVG 20010904//EN"
 "http://www.w3.org/TR/2001/REC-SVG-20010904/DTD/svg10.dtd">
<svg version="1.0" xmlns="http://www.w3.org/2000/svg"
 width="400.000000pt" height="400.000000pt" viewBox="0 0 400.000000 400.000000"
 preserveAspectRatio="xMidYMid meet">
<metadata>
Created by potrace 1.11, written by Peter Selinger 2001-2013
</metadata>
<g transform="translate(0.000000,400.000000) scale(0.100000,-0.100000)"
fill="#000000" stroke="none">
<path d="M1864 3991 c3 -5 -1 -14 -9 -21 -13 -11 -14 -10 -9 4 3 9 1 16 -5 16
-6 0 -11 -6 -11 -14 0 -8 -5 -18 -12 -22 -6 -4 -8 -3 -4 4 4 6 -1 10 -13 9
-11 0 -19 -6 -18 -11 1 -6 -3 -10 -10 -11 -6 0 -15 -3 -19 -7 -4 -5 -16 -8
-27 -8 -13 0 -17 -5 -13 -16 3 -8 2 -12 -4 -9 -5 3 -18 -3 -30 -15 -11 -11
-28 -20 -37 -20 -15 0 -16 -2 -3 -10 11 -7 11 -10 2 -10 -7 0 -10 -4 -7 -10 3
-6 -1 -7 -9 -4 -9 3 -16 1 -16 -6 0 -18 -29 -42 -41 -34 -8 4 -8 0 0 -15 11
-20 8 -25 -13 -22 -5 1 -6 -6 -2 -15 5 -12 2 -15 -9 -10 -13 5 -14 2 -4 -15 7
-14 7 -19 0 -15 -5 4 -15 -2 -20 -13 -8 -14 -8 -21 2 -24 9 -4 9 -6 0 -6 -7
-1 -13 -14 -13 -30 0 -16 -6 -32 -12 -34 -10 -4 -10 -6 0 -6 7 -1 11 -5 7 -11
-3 -5 -13 -6 -23 -3 -15 6 -15 5 2 -12 18 -18 18 -19 -8 -42 -15 -13 -34 -23
-42 -23 -23 0 -28 -1 -49 -13 -11 -6 -23 -10 -27 -9 -5 1 -8 -3 -8 -9 0 -6 -6
-9 -14 -6 -8 3 -17 -1 -20 -10 -5 -13 -9 -13 -23 -2 -12 10 -14 10 -9 2 7 -13
6 -14 -31 -18 -12 -1 -34 -10 -48 -19 -14 -9 -31 -14 -38 -9 -7 4 -6 0 2 -11
12 -15 12 -17 0 -14 -8 2 -13 -3 -11 -10 1 -8 -2 -11 -8 -7 -6 3 -8 12 -4 18
3 7 0 5 -8 -4 -7 -9 -17 -17 -23 -18 -5 -2 -9 -7 -7 -13 1 -5 -6 -7 -18 -3
-13 4 -22 1 -26 -9 -3 -9 -10 -16 -16 -16 -5 0 -6 5 -2 12 4 7 3 8 -5 4 -9 -6
-9 -11 -1 -21 9 -11 7 -12 -9 -8 -14 3 -23 0 -27 -11 -3 -9 -12 -16 -20 -16
-8 0 -14 -4 -14 -10 0 -5 -7 -10 -16 -10 -8 0 -13 -4 -9 -9 3 -5 1 -12 -5 -16
-5 -3 -10 0 -10 7 -1 7 -6 3 -13 -10 -10 -18 -15 -20 -25 -10 -11 11 -12 10
-7 -4 5 -13 2 -18 -10 -18 -9 0 -14 -4 -11 -9 3 -5 -8 -14 -24 -21 -17 -7 -30
-17 -30 -22 0 -6 -7 -7 -16 -4 -14 5 -15 4 -4 -9 10 -13 9 -15 -9 -15 -12 0
-20 -4 -16 -9 7 -12 -29 -33 -39 -23 -4 3 -4 -1 0 -11 4 -12 1 -17 -11 -17 -9
0 -14 -3 -12 -7 3 -5 -5 -17 -16 -28 -11 -12 -17 -14 -13 -5 4 8 0 6 -8 -4 -9
-11 -16 -23 -16 -28 0 -4 -7 -8 -16 -8 -8 0 -13 -4 -9 -9 3 -6 -4 -15 -15 -21
-11 -6 -17 -16 -14 -22 5 -7 2 -9 -9 -5 -16 6 -31 -16 -36 -54 0 -5 -6 -7 -12
-3 -8 4 -9 -1 -4 -16 5 -15 4 -20 -4 -16 -6 4 -15 -4 -21 -18 -5 -14 -14 -26
-20 -26 -5 0 -10 -5 -10 -11 0 -5 6 -7 13 -3 6 4 4 -2 -6 -13 -9 -11 -14 -23
-10 -28 5 -4 2 -5 -5 -1 -11 6 -11 11 0 24 12 15 11 16 -4 3 -10 -7 -15 -17
-12 -22 3 -5 0 -9 -6 -9 -6 0 -9 -4 -5 -9 3 -5 0 -13 -6 -16 -5 -4 -8 -13 -5
-20 3 -9 -2 -12 -15 -10 -16 3 -18 1 -9 -16 7 -11 7 -19 1 -19 -5 0 -16 -14
-25 -30 -9 -19 -10 -28 -3 -23 7 4 7 0 -1 -10 -8 -9 -11 -21 -7 -28 6 -8 1 -8
-15 1 -20 11 -21 10 -10 -9 9 -18 8 -21 -7 -21 -14 0 -15 -2 -4 -9 10 -7 11
-13 2 -30 -16 -28 -25 -27 -11 2 11 21 10 21 -4 3 -11 -14 -13 -23 -5 -32 7
-8 6 -14 -2 -20 -8 -5 -9 -3 -4 6 5 8 4 11 -1 7 -5 -3 -9 -23 -8 -45 0 -26 -3
-39 -10 -36 -7 3 -12 -5 -13 -16 -1 -12 2 -18 9 -14 7 4 8 2 4 -5 -4 -6 -12
-8 -18 -5 -8 5 -9 1 -5 -10 5 -13 3 -17 -7 -13 -10 4 -13 1 -9 -8 3 -8 10 -12
17 -8 6 4 5 -1 -3 -10 -7 -9 -18 -14 -25 -10 -6 4 -5 -1 3 -10 9 -11 10 -17 2
-17 -6 0 -11 -5 -11 -11 0 -5 5 -7 10 -4 6 3 10 1 10 -4 0 -6 -5 -11 -10 -11
-6 0 -8 -11 -6 -26 3 -16 0 -27 -10 -31 -7 -3 -11 -9 -8 -14 3 -6 0 -17 -8
-26 -11 -14 -11 -16 1 -8 10 6 13 4 9 -6 -3 -8 -9 -22 -13 -31 -4 -10 -3 -18
2 -18 5 0 9 -9 9 -20 0 -13 -5 -19 -14 -15 -9 3 -10 0 -3 -12 6 -12 4 -21 -7
-31 -10 -7 -11 -10 -3 -6 11 5 12 1 7 -20 -5 -19 -3 -26 4 -21 7 4 9 -2 6 -19
-3 -15 -1 -24 5 -21 5 4 6 12 2 18 -3 7 4 3 17 -8 13 -11 20 -14 16 -7 -6 9
-2 12 10 10 12 -2 18 2 16 11 -2 9 3 11 15 7 14 -6 16 -5 5 5 -14 15 -17 53
-2 44 6 -4 7 1 3 11 -4 11 -3 15 5 10 7 -4 9 2 6 20 -3 14 1 33 8 42 10 12 10
14 1 8 -17 -10 -17 36 -1 52 10 10 10 15 -2 22 -13 8 -8 14 11 12 3 -1 6 5 6
13 0 8 -4 12 -8 9 -4 -2 -1 8 6 24 8 15 13 38 10 50 -2 12 1 25 7 28 7 5 8 2
3 -6 -6 -9 -4 -11 4 -5 8 4 9 11 3 17 -6 6 -3 24 10 49 10 22 16 44 13 49 -3
6 -1 10 5 10 6 0 8 5 4 12 -5 7 -2 9 8 6 12 -5 14 2 11 35 -3 31 -1 38 7 27 8
-12 10 -11 10 8 0 13 4 21 9 18 4 -3 7 6 5 19 -1 14 1 23 5 21 3 -2 16 11 28
29 16 24 19 36 11 41 -7 5 -8 3 -3 -6 5 -9 4 -11 -4 -6 -6 4 -9 12 -5 17 3 5
10 7 15 4 5 -4 12 7 15 24 4 17 10 28 15 25 5 -3 9 2 9 10 0 9 6 16 13 16 8 0
7 4 -3 10 -12 8 -11 10 7 10 16 0 21 4 17 15 -4 8 -1 15 6 15 9 0 9 4 -1 17
-9 11 -10 14 -2 9 7 -4 21 -2 30 3 11 6 13 11 5 11 -7 0 -10 5 -7 10 4 6 11 8
16 5 5 -3 6 1 3 9 -3 9 3 19 16 26 13 7 19 17 16 26 -3 8 -2 13 3 10 4 -3 17
4 27 17 19 21 19 21 -1 7 -19 -14 -19 -14 -6 3 8 10 20 16 26 13 9 -3 11 3 8
17 -4 16 -2 18 5 8 8 -11 11 -9 17 8 3 11 11 21 16 21 6 0 7 5 4 10 -4 6 -1 9
7 8 7 -2 12 4 10 12 -2 8 0 12 4 8 8 -8 54 37 54 53 0 5 7 9 15 9 8 0 15 7 15
16 0 10 5 14 16 10 8 -3 13 -2 10 3 -3 4 4 17 17 27 21 19 21 19 8 -1 -8 -11
-1 -7 15 10 16 16 28 33 27 36 -1 4 5 6 15 5 9 0 16 5 14 12 -1 7 5 12 15 10
10 -2 17 2 16 9 -2 7 4 10 12 7 10 -4 15 0 15 11 0 14 3 15 14 6 11 -9 14 -9
12 1 0 7 3 14 8 15 5 1 12 7 17 15 5 7 12 13 16 14 29 3 63 25 56 36 -4 7 6 4
22 -6 21 -13 26 -15 17 -4 -15 18 2 37 30 33 10 -2 16 2 15 8 -1 7 8 11 20 11
13 -1 20 3 16 9 -4 6 0 8 11 4 9 -4 14 -3 11 2 -3 5 -1 12 5 16 5 3 10 0 10
-7 0 -10 2 -10 8 -1 5 7 20 14 34 15 15 1 24 7 21 12 -4 5 1 7 10 3 10 -3 17
-2 17 3 0 5 7 6 17 3 10 -4 14 -2 9 5 -4 7 1 10 14 7 12 -2 23 2 26 10 3 8 13
11 21 8 9 -4 14 -2 10 3 -3 5 7 9 21 8 34 -2 62 22 57 48 -3 11 0 30 6 40 6
11 7 18 2 15 -6 -4 -9 6 -8 20 0 15 6 28 13 31 7 2 10 8 6 13 -3 5 1 9 8 9 9
0 9 3 -2 10 -12 8 -12 10 -1 10 8 0 11 3 8 7 -4 3 1 12 11 20 11 10 12 12 2 8
-12 -5 -12 -4 1 7 9 7 15 21 13 30 -1 9 8 25 19 35 l22 18 -20 -25 c-17 -21
-14 -20 15 5 19 17 37 32 40 34 3 2 -6 0 -19 -4 l-24 -7 21 22 c12 13 25 19
33 14 9 -5 11 -2 6 9 -4 11 -2 14 8 11 8 -3 20 4 27 15 7 12 19 21 26 21 7 0
11 4 8 9 -6 10 24 25 32 16 3 -3 0 -5 -6 -5 -7 0 -12 -5 -12 -10 0 -6 8 -5 19
2 11 7 17 16 15 20 -5 8 11 12 30 9 4 -1 15 4 24 11 13 11 14 11 7 -1 -6 -11
-5 -12 6 -5 8 5 25 9 39 9 14 0 30 3 35 7 6 4 17 3 25 -3 21 -13 32 -11 24 4
-6 9 -4 9 8 -1 8 -7 23 -10 32 -6 9 4 16 1 16 -6 0 -10 3 -10 15 0 12 10 16 9
22 -6 5 -11 14 -20 22 -22 12 -3 12 -1 0 15 -13 17 -13 17 7 1 11 -10 28 -18
37 -18 9 0 17 -5 17 -11 0 -5 -5 -7 -12 -3 -7 4 -8 3 -4 -4 4 -6 14 -8 23 -5
11 4 14 3 9 -5 -5 -8 -1 -10 10 -5 14 5 16 3 11 -12 -7 -16 -5 -16 10 -4 11 9
14 10 9 2 -4 -8 -2 -13 4 -13 6 0 8 -5 4 -12 -5 -8 -2 -9 10 -5 9 4 15 3 12
-2 -3 -5 2 -15 11 -22 14 -12 16 -12 8 0 -6 10 -4 12 4 6 7 -4 11 -16 8 -26
-3 -11 -1 -16 4 -13 5 3 16 -2 25 -10 9 -9 11 -16 4 -16 -6 0 2 -12 17 -26 15
-14 22 -23 16 -19 -18 9 -16 -5 5 -28 9 -11 11 -17 5 -13 -21 12 -15 -4 10
-26 12 -11 17 -17 11 -14 -8 4 -11 -3 -10 -19 0 -14 5 -25 10 -25 5 0 3 -7 -4
-15 -7 -9 -8 -15 -2 -15 11 0 11 -18 0 -35 -4 -6 -3 -17 2 -25 9 -14 2 -43 -9
-36 -7 5 -8 -3 -13 -64 -2 -19 -11 -41 -20 -48 -9 -7 -15 -19 -12 -27 4 -8 2
-15 -4 -15 -5 0 -13 -11 -16 -25 -4 -14 -11 -23 -16 -20 -5 3 -15 -3 -22 -15
-7 -11 -19 -20 -26 -20 -7 0 -10 -4 -7 -10 3 -5 1 -10 -5 -10 -6 0 -9 -4 -6
-9 3 -5 -2 -8 -12 -7 -9 0 -16 -5 -14 -12 2 -10 -2 -10 -20 -1 -13 6 -20 8
-16 5 3 -4 -1 -16 -10 -26 -13 -16 -19 -17 -31 -7 -12 9 -13 9 -7 0 4 -8 1
-13 -8 -13 -9 0 -16 -5 -16 -12 0 -9 -3 -9 -12 0 -8 8 -17 6 -36 -9 -20 -15
-27 -17 -34 -7 -6 10 -8 10 -8 -2 0 -12 -2 -13 -9 -1 -6 8 -14 10 -22 5 -23
-14 -39 -13 -39 2 0 9 -5 12 -10 9 -6 -4 -8 -12 -4 -18 3 -7 -4 -1 -17 13 -13
14 -21 21 -16 16 16 -21 6 -27 -19 -11 -15 9 -23 12 -20 6 4 -6 2 -11 -3 -11
-6 0 -11 5 -11 10 0 6 -11 10 -24 10 -13 0 -35 11 -49 25 -18 18 -27 22 -30
13 -3 -8 -6 -5 -6 6 -1 16 -3 17 -18 5 -11 -10 -14 -10 -9 -1 4 7 2 12 -5 12
-9 0 -9 3 0 14 10 12 8 13 -11 9 -13 -3 -20 -3 -16 2 4 4 -4 18 -18 32 -14 14
-21 29 -17 36 4 7 -1 6 -10 -2 -15 -12 -17 -12 -11 3 4 9 1 16 -6 16 -8 0 -11
9 -8 25 3 14 1 23 -6 22 -6 -1 -11 9 -11 22 0 14 -6 26 -13 29 -7 2 -9 9 -5
15 4 7 -2 5 -12 -3 -13 -10 -16 -11 -11 -2 11 18 -21 41 -47 34 -14 -4 -16 -7
-5 -13 10 -7 10 -9 -2 -9 -16 0 -22 -41 -8 -55 4 -4 4 -13 1 -21 -3 -9 2 -14
13 -14 16 0 17 -2 4 -10 -12 -8 -12 -10 5 -11 13 0 15 -2 6 -6 -10 -4 -8 -9
10 -20 13 -8 16 -12 7 -9 -12 3 -15 1 -11 -9 3 -8 9 -13 13 -10 5 3 10 -5 12
-17 2 -13 9 -22 15 -21 8 2 10 -4 6 -14 -4 -11 -3 -14 5 -9 11 7 17 -6 13 -27
-1 -5 3 -6 9 -2 5 3 10 1 10 -4 0 -6 9 -11 20 -11 14 0 20 -6 18 -17 -2 -10 3
-18 10 -19 6 -1 17 -2 23 -3 5 0 7 -5 4 -11 -3 -5 0 -7 9 -4 9 3 19 -3 26 -16
6 -11 16 -20 23 -19 31 4 47 -2 48 -18 0 -15 2 -15 9 2 7 16 9 16 9 4 1 -9 8
-20 17 -23 10 -4 13 -2 8 7 -6 9 -4 9 7 1 8 -6 22 -10 32 -9 9 2 17 -2 17 -9
0 -7 7 -13 15 -13 8 0 12 4 9 8 -2 4 1 11 7 15 8 4 9 3 5 -4 -4 -7 -2 -12 4
-12 6 0 8 -6 5 -12 -4 -7 0 -4 9 6 14 17 16 17 22 3 5 -14 8 -15 20 -2 11 10
21 12 39 5 18 -7 28 -5 40 6 9 9 25 14 35 11 11 -3 20 -2 20 3 0 4 7 11 16 14
15 6 15 4 3 -10 -13 -16 -12 -16 19 0 17 9 32 20 32 25 0 5 9 7 20 4 15 -4 20
0 20 13 0 16 2 17 10 4 7 -12 10 -12 10 -1 0 7 6 11 14 8 11 -4 13 -1 9 11 -3
9 -3 14 2 10 4 -4 14 0 22 10 9 10 11 11 7 2 -7 -13 -6 -13 10 -1 9 8 15 20
12 27 -3 8 -2 13 2 13 25 -4 34 3 29 22 -5 17 -3 18 9 8 12 -10 15 -10 12 2
-2 8 2 13 9 12 7 -2 10 3 7 11 -3 8 0 17 5 21 6 3 9 11 6 16 -3 5 1 6 9 3 12
-5 16 1 16 21 0 14 3 24 8 22 4 -3 14 2 22 11 13 14 12 15 -5 9 -18 -6 -19 -6
-3 6 13 10 14 17 6 25 -8 8 -7 13 5 17 9 4 14 15 12 27 -3 13 2 22 15 25 19 5
19 5 0 25 -17 18 -17 23 -5 41 7 10 11 26 8 33 -3 8 1 14 8 14 11 0 11 2 -1
10 -8 5 -11 12 -8 16 4 3 0 21 -8 38 l-15 31 21 -25 c20 -23 21 -23 10 -2 -6
12 -8 27 -5 32 4 6 0 13 -8 16 -9 3 -14 17 -13 34 1 16 0 27 -3 25 -9 -9 -30
17 -24 31 3 8 0 14 -7 14 -10 0 -10 3 0 15 10 12 8 13 -10 10 -19 -4 -20 -2
-8 12 9 12 9 15 1 9 -9 -5 -13 -1 -13 12 0 11 -7 23 -16 26 -8 3 -12 10 -9 16
3 6 -2 13 -12 17 -26 10 -45 31 -38 43 4 6 -1 7 -11 3 -12 -4 -15 -3 -10 5 4
7 1 12 -9 12 -9 0 -13 4 -10 10 3 5 0 7 -8 4 -8 -3 -18 0 -23 7 -5 8 -3 10 6
4 9 -5 11 -4 6 4 -6 9 -11 9 -24 -1 -12 -10 -14 -10 -8 0 4 7 2 12 -4 12 -6 0
-9 4 -6 9 4 5 -4 7 -16 3 -14 -3 -19 -1 -14 6 3 6 2 13 -4 17 -5 3 -10 -2 -10
-12 -1 -16 -2 -16 -13 2 -8 13 -22 20 -40 19 -15 -1 -30 3 -34 9 -3 6 -1 7 5
3 6 -3 13 -2 16 2 3 5 -60 9 -140 10 -80 1 -142 -2 -140 -7z m-104 -155 c0 -3
-4 -8 -10 -11 -5 -3 -10 -1 -10 4 0 6 5 11 10 11 6 0 10 -2 10 -4z m637 -22
c-3 -3 -12 -4 -19 -1 -8 3 -5 6 6 6 11 1 17 -2 13 -5z m-827 -348 c0 -2 -7 -9
-15 -16 -13 -11 -14 -10 -9 4 5 14 24 23 24 12z m860 -80 c0 -2 -7 -9 -15 -16
-13 -11 -14 -10 -9 4 5 14 24 23 24 12z m-323 -321 c0 -8 -4 -12 -9 -9 -5 3
-6 10 -3 15 9 13 12 11 12 -6z m-37 -85 c0 -5 -2 -10 -4 -10 -3 0 -8 5 -11 10
-3 6 -1 10 4 10 6 0 11 -4 11 -10z m-1480 -74 c0 -2 -7 -7 -16 -10 -8 -3 -12
-2 -9 4 6 10 25 14 25 6z"/>
<path d="M2510 3435 c-7 -9 -8 -15 -2 -15 5 0 12 7 16 15 3 8 4 15 2 15 -2 0
-9 -7 -16 -15z"/>
<path d="M2884 3338 c-4 -7 -3 -8 4 -4 7 4 12 1 12 -9 0 -9 -4 -13 -10 -10 -5
3 -10 1 -10 -5 0 -6 -4 -9 -9 -6 -5 4 -7 -3 -4 -14 3 -11 10 -20 15 -20 5 0 6
5 2 12 -4 7 -3 8 5 4 6 -4 9 -12 6 -17 -9 -14 23 -42 37 -33 8 5 7 0 -2 -11
-10 -12 -10 -16 -2 -11 7 4 20 2 29 -6 9 -7 19 -12 22 -12 10 3 41 -22 36 -28
-3 -3 1 -8 10 -12 11 -4 14 -2 9 6 -4 7 -3 8 4 4 7 -4 12 -14 12 -22 0 -8 7
-14 16 -14 9 0 12 -5 8 -12 -5 -8 -2 -9 11 -4 15 5 16 4 5 -9 -11 -13 -10 -14
4 -9 9 3 16 1 16 -4 0 -6 9 -13 19 -17 11 -3 22 -13 25 -22 6 -14 4 -14 -11
-2 -11 9 -14 10 -9 2 4 -7 16 -18 28 -24 16 -9 19 -8 13 2 -5 8 -4 10 3 5 7
-4 12 -14 12 -23 0 -9 3 -14 6 -10 8 8 54 -34 54 -50 0 -8 5 -11 10 -8 6 3 10
0 10 -8 0 -7 11 -24 25 -37 13 -12 22 -27 19 -31 -3 -5 1 -6 9 -3 8 3 20 -3
28 -12 9 -12 10 -15 2 -10 -7 4 -13 2 -13 -3 0 -10 14 -15 33 -12 5 1 7 -4 5
-11 -3 -7 2 -19 11 -26 12 -10 13 -12 1 -6 -13 7 -13 5 -2 -9 8 -9 10 -22 6
-28 -4 -7 -3 -9 4 -5 6 3 13 2 17 -4 4 -6 12 -7 18 -3 7 4 6 0 -2 -10 -11 -14
-11 -17 0 -18 8 -1 18 -1 22 0 5 1 5 -8 2 -20 -5 -15 -4 -19 4 -15 6 4 11 0
11 -9 0 -10 5 -13 12 -9 7 4 8 3 4 -4 -8 -14 18 -55 28 -45 4 4 4 0 0 -10 -3
-9 -1 -17 5 -17 6 0 8 -7 5 -15 -4 -8 -2 -15 4 -15 5 0 8 -11 7 -25 -2 -14 0
-23 5 -20 15 9 32 -25 27 -52 -4 -16 -4 -22 -1 -15 11 24 26 12 22 -18 -3 -22
0 -30 10 -30 12 0 12 -3 2 -15 -10 -12 -8 -14 8 -10 16 3 20 -1 17 -17 -3 -11
-7 -23 -10 -26 -2 -3 3 -11 13 -19 9 -8 11 -12 5 -8 -9 4 -11 1 -7 -9 3 -9 11
-13 18 -9 6 4 4 -2 -4 -12 -9 -11 -10 -16 -2 -11 11 7 17 -17 13 -53 -2 -8 2
-10 10 -5 8 4 10 3 5 -5 -12 -18 -15 -61 -5 -61 5 0 9 5 9 12 0 6 3 8 6 5 4
-4 1 -14 -7 -24 -8 -9 -9 -14 -2 -10 6 4 14 3 18 -3 3 -5 -1 -10 -10 -10 -15
0 -15 -1 0 -16 13 -13 13 -19 3 -32 -7 -9 -8 -13 -2 -9 11 6 13 -17 14 -116 0
-19 3 -26 11 -21 9 5 9 3 3 -7 -14 -21 -12 -90 2 -85 11 4 10 -20 -4 -54 -12
-32 -10 -51 6 -45 14 5 14 4 0 -12 -8 -10 -14 -27 -11 -38 10 -54 10 -83 -2
-78 -7 2 -16 -1 -21 -8 -4 -7 -3 -10 4 -5 7 4 10 -7 9 -34 -1 -22 -5 -40 -9
-40 -4 0 -6 -18 -4 -40 2 -22 0 -43 -5 -46 -4 -2 -6 4 -4 16 2 11 0 22 -5 25
-4 3 -7 -3 -5 -12 1 -10 -2 -25 -8 -33 -6 -8 -8 -12 -3 -8 12 10 34 -15 28
-31 -3 -9 -1 -12 6 -7 7 4 12 3 12 -2 0 -5 9 -12 20 -15 11 -3 20 -13 20 -22
0 -9 4 -14 9 -11 13 8 42 -4 35 -15 -3 -5 0 -9 6 -9 6 0 8 -5 5 -10 -4 -6 -3
-9 2 -8 5 2 22 -9 38 -24 16 -16 26 -28 21 -28 -5 0 -2 -8 5 -17 12 -14 12
-16 -1 -9 -13 7 -13 6 0 -6 8 -7 15 -17 16 -23 3 -26 17 -55 28 -56 6 0 2 -4
-9 -9 -18 -8 -18 -9 5 -9 20 -1 22 -3 10 -11 -11 -7 -11 -10 -2 -10 8 0 11
-10 9 -28 -2 -15 0 -34 4 -44 6 -11 4 -18 -9 -23 -16 -6 -16 -7 2 -21 12 -8
14 -14 7 -14 -7 0 -11 -6 -8 -14 3 -7 0 -19 -6 -26 -7 -8 -7 -10 -1 -7 6 3 11
-1 11 -9 0 -8 -6 -13 -13 -10 -8 3 -11 -2 -9 -15 2 -12 -2 -22 -11 -26 -13 -5
-13 -7 -2 -14 9 -6 9 -9 1 -9 -7 0 -18 -10 -24 -23 -10 -19 -10 -21 2 -12 8 6
6 2 -4 -7 -10 -10 -20 -26 -22 -35 -1 -10 -9 -17 -18 -17 -9 1 -13 -4 -10 -13
3 -8 0 -13 -8 -11 -8 2 -13 -1 -12 -7 0 -5 -5 -16 -13 -23 -11 -10 -14 -10
-15 0 0 7 -4 3 -9 -10 -6 -14 -18 -22 -32 -22 -19 0 -20 -2 -8 -11 12 -9 11
-10 -7 -6 -12 3 -21 0 -20 -5 1 -6 -8 -12 -21 -14 -16 -3 -21 0 -16 8 4 7 3 8
-5 4 -6 -4 -9 -11 -6 -16 3 -5 1 -11 -5 -15 -5 -3 -10 -1 -10 5 0 6 -5 8 -10
5 -6 -4 -8 -10 -6 -14 3 -4 -15 -6 -40 -5 -24 1 -42 -2 -39 -7 4 -5 -1 -6 -9
-3 -9 3 -13 11 -10 18 3 6 -2 2 -10 -8 -9 -12 -16 -14 -16 -7 0 8 -7 10 -21 6
-15 -5 -19 -4 -15 4 5 8 0 8 -16 2 -28 -10 -51 -3 -41 12 4 7 -2 5 -12 -3 -11
-9 -16 -10 -11 -2 7 12 -3 16 -36 13 -9 -1 -19 3 -23 9 -3 6 -12 7 -18 3 -7
-4 -5 1 3 12 14 16 13 17 -8 11 -14 -5 -22 -3 -22 4 0 6 -8 14 -17 17 -25 10
-63 49 -63 66 0 8 -11 19 -24 25 -14 6 -30 21 -36 33 -10 17 -9 20 2 14 7 -4
2 3 -12 15 -14 12 -19 19 -12 15 17 -9 15 3 -3 22 -12 12 -13 18 -4 29 9 12 9
18 0 27 -10 9 -11 9 -8 -3 2 -8 2 -12 0 -7 -3 4 -9 4 -15 1 -6 -4 -5 2 1 15 7
11 8 21 4 21 -10 0 -9 63 1 78 4 7 1 12 -6 12 -9 0 -9 3 2 10 13 9 13 10 0 11
-10 0 -8 3 5 9 l20 9 -20 0 c-11 1 -16 5 -10 9 6 4 10 13 11 20 2 28 4 33 12
28 5 -3 8 5 7 17 -1 12 2 25 7 28 5 3 10 15 11 27 0 11 4 19 8 16 10 -6 20 26
12 39 -4 7 0 8 12 4 14 -6 16 -3 12 13 -3 10 -2 19 2 18 20 -2 31 4 31 17 0 9
6 12 18 8 9 -3 14 -3 10 1 -7 9 33 52 45 48 4 -1 7 2 7 8 0 6 6 9 13 8 6 -2
11 2 10 9 -2 8 4 10 14 6 11 -5 14 -3 8 6 -6 11 -3 11 16 0 21 -11 22 -10 12
3 -11 12 -6 14 32 13 24 -1 42 2 39 7 -9 14 98 17 108 3 5 -6 8 -5 8 3 0 6 5
12 11 12 5 0 7 -4 4 -10 -3 -5 0 -7 8 -4 8 3 26 6 40 7 15 1 26 6 26 11 0 5 5
13 13 17 10 7 10 9 1 9 -7 0 -13 12 -13 28 0 21 -2 24 -10 12 -8 -13 -10 -12
-10 3 0 9 -5 17 -11 17 -6 0 -7 -6 -2 -12 4 -7 -6 -5 -21 6 -16 10 -26 14 -22
8 3 -5 -1 -13 -10 -16 -9 -3 -12 -2 -9 4 7 11 -111 7 -122 -4 -3 -3 -12 -1
-20 6 -11 9 -12 7 -6 -7 5 -15 3 -17 -12 -11 -11 4 -22 2 -26 -6 -6 -9 -11 -9
-23 2 -14 11 -16 10 -9 -6 6 -17 5 -18 -13 -4 -10 8 -16 11 -12 6 4 -5 1 -15
-7 -22 -17 -17 -28 -18 -20 -1 4 6 1 5 -7 -4 -13 -16 -56 -35 -70 -31 -4 1 -4
-6 -1 -15 5 -13 2 -15 -12 -9 -11 4 -17 4 -13 1 8 -8 -23 -46 -33 -40 -4 3 -6
-3 -5 -13 0 -9 -5 -16 -12 -14 -7 1 -12 -5 -10 -15 2 -14 -3 -18 -22 -16 -14
1 -19 -1 -12 -3 17 -8 15 -24 -3 -24 -8 0 -15 -5 -15 -11 0 -5 5 -7 11 -4 6 4
5 -2 -2 -13 -7 -12 -16 -19 -20 -16 -5 2 -6 -5 -4 -16 3 -13 -1 -20 -12 -20
-13 0 -14 -2 -2 -17 10 -11 10 -14 2 -9 -9 5 -13 -2 -13 -23 0 -17 -5 -31 -11
-31 -5 0 -7 -4 -4 -10 3 -5 -1 -10 -10 -10 -9 0 -13 -5 -10 -10 4 -6 10 -8 15
-5 5 3 12 0 16 -6 5 -8 3 -9 -5 -4 -9 5 -12 1 -9 -12 2 -11 -4 -28 -12 -38 -8
-11 -10 -16 -4 -12 7 4 11 -12 12 -48 0 -30 6 -64 12 -76 8 -14 8 -19 1 -15
-6 4 -11 2 -11 -3 0 -6 6 -11 14 -11 9 0 12 -10 10 -31 -3 -21 0 -28 8 -23 8
5 9 0 5 -15 -5 -19 -3 -20 10 -9 15 12 15 11 4 -11 -7 -13 -9 -21 -4 -18 4 3
13 -1 20 -8 10 -11 10 -15 0 -18 -7 -3 -4 -6 7 -6 15 -1 16 -4 6 -16 -11 -13
-10 -14 4 -9 11 4 16 1 16 -10 0 -9 5 -16 10 -16 6 0 10 -7 10 -15 0 -14 12
-19 33 -16 4 0 7 -9 7 -21 0 -19 2 -20 10 -8 8 13 10 12 10 -4 0 -12 5 -16 16
-12 8 3 12 2 9 -4 -3 -6 -2 -10 3 -10 5 0 14 -10 21 -22 6 -13 9 -15 7 -6 -4
12 -1 15 10 11 7 -3 14 -10 14 -15 0 -6 9 -8 19 -5 14 3 18 1 14 -9 -4 -10 3
-14 21 -14 14 0 26 -4 26 -8 0 -4 9 -8 21 -9 12 -1 27 -10 35 -20 13 -17 14
-17 7 2 -5 16 -4 18 8 9 8 -5 41 -11 73 -12 32 -2 63 -5 68 -8 4 -3 8 0 8 6 0
6 5 8 10 5 6 -4 18 -1 27 7 12 9 15 9 9 0 -5 -8 -1 -11 16 -8 13 2 22 10 20
17 -2 8 -1 11 3 7 4 -4 17 -3 30 2 14 5 26 5 33 -2 7 -7 15 -2 27 16 10 15 23
25 31 24 7 -2 20 6 29 17 9 11 13 13 9 5 -4 -8 4 -4 18 10 37 37 72 65 80 63
3 -1 9 4 12 13 4 10 2 13 -6 8 -7 -4 -8 -3 -4 4 4 7 14 12 22 12 8 0 13 4 9 9
-3 6 4 15 15 21 11 6 20 16 20 23 0 7 -4 6 -10 -3 -7 -10 -10 -11 -10 -2 0 7
7 15 16 19 9 3 14 13 11 24 -3 12 0 16 10 12 12 -5 14 -1 8 17 -4 13 -3 20 2
17 5 -3 10 3 10 14 1 12 -3 17 -10 13 -7 -3 -3 2 7 10 11 9 21 26 23 38 2 18
1 20 -6 8 -5 -8 -7 -18 -4 -24 3 -5 1 -6 -6 -2 -9 6 -9 13 2 29 19 30 24 187
5 187 -8 0 -9 3 -3 8 13 9 19 35 6 28 -5 -3 -12 1 -15 10 -4 10 -2 13 7 8 9
-6 9 -5 0 8 -7 8 -10 18 -6 21 3 4 -2 7 -13 8 -18 0 -18 1 1 9 17 7 17 9 3 9
-16 1 -23 12 -19 34 0 4 -4 7 -10 7 -5 0 -7 5 -4 10 3 6 0 13 -8 16 -9 3 -18
16 -21 30 -4 13 -13 24 -21 24 -7 0 -17 5 -21 12 -4 7 -3 8 4 4 8 -5 10 -2 6
8 -3 9 -11 14 -17 13 -7 -1 -11 4 -9 11 1 6 -7 12 -18 12 -11 0 -20 6 -20 13
0 8 -10 22 -22 33 -13 10 -17 12 -10 4 6 -8 12 -18 12 -23 0 -5 -9 1 -19 14
-14 17 -16 26 -8 31 9 6 8 8 -1 8 -7 0 -10 5 -7 10 4 6 12 7 18 3 8 -4 7 -1
-1 9 -10 13 -10 18 -1 24 8 5 9 3 4 -6 -6 -9 -4 -11 4 -5 9 5 10 10 2 18 -7 7
-7 16 0 29 7 13 6 18 -3 18 -8 0 -9 3 -3 8 6 4 12 31 13 61 1 30 8 61 15 70 9
12 9 13 0 7 -7 -4 -14 -2 -14 3 -1 6 -2 17 -3 24 -1 6 5 21 13 31 9 11 11 16
4 13 -8 -5 -11 0 -10 13 1 21 17 29 17 8 0 -6 3 -8 6 -5 9 8 -16 38 -26 32 -4
-3 -6 9 -5 26 2 17 9 35 16 40 11 7 10 9 -4 9 -14 0 -16 4 -8 18 5 10 6 24 2
31 -5 7 -6 22 -3 34 4 14 2 18 -7 12 -10 -5 -11 -3 -4 11 5 11 7 33 6 49 -2
17 -4 38 -4 48 0 11 -5 15 -12 10 -8 -4 -8 -2 1 9 10 13 10 18 -1 29 -7 8 -14
34 -15 59 -1 25 -7 47 -12 48 -6 2 -10 8 -10 13 0 6 4 8 9 4 5 -3 13 0 17 6 4
7 3 9 -3 6 -6 -4 -17 1 -24 10 -12 14 -12 16 1 8 13 -8 13 -7 1 8 -7 9 -10 17
-5 17 5 0 3 4 -5 9 -7 5 -13 20 -13 35 0 15 -5 23 -11 19 -6 -4 -8 0 -4 9 3 9
0 21 -6 28 -9 10 -9 11 1 6 19 -11 14 1 -10 25 -17 16 -18 20 -6 16 12 -4 15
-2 12 8 -3 8 -11 12 -19 9 -8 -4 -11 3 -10 20 2 14 -3 27 -11 30 -8 3 -14 15
-14 26 0 11 -4 20 -10 20 -5 0 -6 8 -3 18 6 14 4 15 -8 5 -13 -10 -16 -10 -16
2 0 8 4 15 9 15 5 0 6 5 3 10 -4 6 -10 8 -15 5 -4 -3 -7 6 -5 20 2 20 0 23
-12 14 -11 -9 -12 -8 -7 5 4 9 1 16 -6 16 -7 0 -10 7 -6 16 4 10 2 13 -6 8 -8
-5 -9 -2 -5 10 5 13 3 17 -7 13 -10 -4 -14 0 -11 14 3 16 0 19 -12 15 -14 -6
-14 -4 -2 11 8 9 9 14 3 10 -7 -4 -18 1 -25 10 -8 9 -9 14 -3 10 6 -3 11 0 11
8 0 8 -4 12 -9 9 -12 -7 -48 38 -43 53 2 7 -1 15 -7 19 -7 5 -8 2 -3 -7 4 -8
-1 -6 -11 4 -17 15 -17 19 -4 28 12 9 12 10 1 7 -16 -5 -58 32 -53 46 2 5 -4
6 -13 2 -9 -3 -13 -2 -10 4 3 6 1 10 -5 10 -6 0 -10 8 -8 17 2 10 -3 18 -12
18 -8 0 -14 8 -14 18 1 9 -2 15 -6 12 -12 -7 -110 86 -110 104 0 14 -1 14 -10
1 -8 -13 -10 -13 -10 1 0 9 -7 20 -16 23 -9 3 -12 11 -8 18 5 9 3 9 -9 -1 -9
-7 -17 -9 -17 -4 0 5 -7 18 -16 29 -8 10 -12 13 -9 6 6 -11 3 -12 -13 -3 -14
8 -19 17 -15 29 5 14 3 15 -8 5 -19 -19 -28 -16 -24 8 4 17 2 19 -10 9 -12
-10 -15 -9 -15 6 0 16 -2 17 -10 4 -9 -13 -10 -13 -11 0 -1 8 -1 19 0 24 1 5
-5 3 -14 -4 -14 -11 -17 -10 -22 8 -3 12 -10 22 -15 22 -5 0 -6 -6 -1 -12 4
-7 -5 -5 -19 4 -19 13 -29 15 -34 6z m417 -425 c13 -16 12 -17 -3 -4 -17 13
-22 21 -14 21 2 0 10 -8 17 -17z m129 -147 c0 -3 -4 -8 -10 -11 -5 -3 -10 -1
-10 4 0 6 5 11 10 11 6 0 10 -2 10 -4z m280 -766 c0 -5 -5 -10 -11 -10 -5 0
-7 5 -4 10 3 6 8 10 11 10 2 0 4 -4 4 -10z m10 -114 c0 -3 -4 -8 -10 -11 -5
-3 -10 -1 -10 4 0 6 5 11 10 11 6 0 10 -2 10 -4z m-5 -146 c3 -5 1 -10 -4 -10
-6 0 -11 5 -11 10 0 6 2 10 4 10 3 0 8 -4 11 -10z m-325 -330 c0 -5 -2 -10 -4
-10 -3 0 -8 5 -11 10 -3 6 -1 10 4 10 6 0 11 -4 11 -10z m310 -894 c0 -3 -4
-8 -10 -11 -5 -3 -10 -1 -10 4 0 6 5 11 10 11 6 0 10 -2 10 -4z"/>
<path d="M2970 3191 c0 -5 7 -12 16 -15 14 -5 15 -4 4 9 -14 17 -20 19 -20 6z"/>
<path d="M1800 3126 c0 -2 8 -10 18 -17 15 -13 16 -12 3 4 -13 16 -21 21 -21
13z"/>
<path d="M3227 3119 c7 -7 15 -10 18 -7 3 3 -2 9 -12 12 -14 6 -15 5 -6 -5z"/>
<path d="M3455 2860 c3 -5 8 -10 11 -10 2 0 4 5 4 10 0 6 -5 10 -11 10 -5 0
-7 -4 -4 -10z"/>
<path d="M1921 2657 c-36 -62 -172 -299 -304 -527 -132 -228 -280 -485 -329
-570 -49 -85 -94 -160 -99 -166 -6 -8 -4 -13 8 -15 10 -3 371 -4 803 -3 574 0
784 4 783 12 -3 10 -156 278 -490 857 -195 337 -305 525 -307 525 0 -1 -30
-51 -65 -113z m286 -457 c348 -602 416 -721 411 -726 -3 -2 -289 -3 -636 -2
l-632 3 101 175 c214 371 289 501 385 665 54 94 109 191 123 217 22 40 27 44
37 30 6 -10 101 -172 211 -362z"/>
<path d="M3715 2360 c3 -5 8 -10 11 -10 2 0 4 5 4 10 0 6 -5 10 -11 10 -5 0
-7 -4 -4 -10z"/>
<path d="M3686 1613 c-6 -14 -5 -15 5 -6 7 7 10 15 7 18 -3 3 -9 -2 -12 -12z"/>
<path d="M501 1513 c-1 -7 -11 -10 -27 -7 -19 3 -24 1 -18 -8 5 -10 4 -11 -7
0 -7 6 -20 12 -28 12 -14 0 -14 -1 -1 -10 13 -8 13 -10 -2 -10 -9 0 -19 6 -21
13 -3 7 -6 5 -6 -5 -1 -12 -9 -16 -28 -15 -16 1 -27 -3 -26 -9 1 -6 -8 -10
-20 -10 -12 1 -21 -4 -20 -10 1 -6 -9 -10 -22 -8 -14 1 -28 -3 -32 -8 -4 -7
-1 -8 7 -3 9 5 11 4 6 -4 -4 -6 -15 -10 -24 -9 -9 2 -17 -3 -17 -9 0 -7 -3
-12 -7 -10 -3 1 -16 -11 -28 -26 -13 -16 -28 -26 -37 -23 -8 3 -12 2 -9 -3 3
-5 -1 -11 -9 -15 -8 -3 -15 -16 -15 -28 0 -19 -2 -20 -10 -8 -8 12 -10 10 -10
-8 0 -15 -4 -21 -12 -16 -6 4 -8 3 -4 -4 3 -6 -1 -17 -9 -25 -11 -12 -12 -17
-2 -20 9 -4 9 -6 0 -6 -7 -1 -13 -8 -13 -17 0 -8 -5 -12 -10 -9 -10 6 -12 -1
-13 -43 0 -14 -5 -21 -12 -19 -9 4 -12 -32 -13 -141 -1 -84 2 -141 7 -133 5 8
11 9 15 3 3 -6 1 -14 -4 -17 -7 -5 -5 -12 7 -22 10 -8 11 -11 3 -7 -10 5 -8 0
4 -15 14 -15 16 -21 5 -18 -8 2 -11 2 -6 0 4 -3 5 -9 2 -14 -4 -5 2 -6 11 -2
12 4 15 3 10 -5 -4 -7 -2 -12 3 -12 6 0 11 -9 11 -20 0 -11 5 -20 10 -20 6 0
10 -5 10 -11 0 -5 -4 -7 -10 -4 -6 4 -7 -1 -3 -11 4 -11 8 -13 11 -6 4 13 23
17 20 5 -3 -17 15 -43 25 -36 6 4 8 0 4 -10 -4 -10 -2 -16 5 -14 7 1 13 -4 14
-10 1 -7 2 -16 3 -19 0 -4 8 -1 17 6 12 11 15 11 12 -1 -2 -8 3 -13 11 -11 9
2 11 -3 7 -13 -3 -9 -2 -13 4 -10 6 3 10 1 10 -5 0 -6 4 -8 10 -5 5 3 22 -7
37 -22 14 -15 23 -22 19 -15 -4 6 -3 12 3 12 5 0 11 -5 13 -10 2 -6 13 -12 26
-13 12 0 22 -5 22 -10 0 -5 9 -7 21 -4 15 4 18 2 10 -7 -8 -9 -7 -13 4 -13 8
0 15 4 15 9 0 5 5 6 10 3 6 -4 8 -11 5 -16 -4 -5 -1 -9 4 -9 6 0 11 3 11 8 0
4 11 8 25 8 15 1 22 -2 18 -9 -3 -5 -2 -7 4 -4 5 3 27 7 49 8 21 1 45 7 53 13
11 8 13 8 8 0 -4 -7 0 -14 8 -17 9 -4 12 -1 9 7 -3 7 1 13 8 14 7 1 27 4 43 7
17 4 37 7 45 9 9 1 22 6 29 11 10 6 12 4 6 -5 -6 -10 -3 -12 14 -7 19 5 20 3
9 -11 -10 -12 -10 -14 0 -8 6 4 12 3 12 -1 0 -5 10 -13 23 -18 12 -6 21 -17
19 -24 -2 -9 3 -11 13 -7 9 3 14 2 11 -3 -3 -5 2 -15 11 -22 14 -12 16 -12 8
1 -6 12 -6 13 6 2 12 -11 12 -14 -1 -22 -8 -5 -10 -10 -4 -10 5 0 16 6 23 12
10 11 11 10 6 -4 -5 -13 -2 -16 14 -13 14 2 18 -1 15 -10 -4 -10 0 -13 16 -10
19 4 20 2 8 -12 -9 -12 -9 -15 0 -9 7 4 12 2 12 -4 0 -6 5 -8 10 -5 6 3 10 1
10 -5 0 -6 5 -8 12 -4 8 5 9 2 5 -10 -4 -9 -3 -14 2 -11 14 8 61 -16 61 -32 0
-7 4 -13 10 -13 5 0 7 8 4 18 -5 16 -5 16 6 -1 6 -9 15 -15 19 -12 5 2 15 -3
22 -13 13 -16 13 -16 -6 -2 -18 14 -19 14 -7 -2 8 -9 19 -15 27 -12 7 3 23 -7
35 -23 13 -15 20 -20 17 -10 -4 9 -2 17 3 17 6 0 10 -7 10 -15 0 -9 6 -12 17
-8 11 5 14 3 8 -6 -5 -10 -2 -11 14 -6 15 4 19 3 16 -7 -5 -13 7 -17 57 -21
12 -1 14 -5 7 -13 -7 -8 -7 -14 0 -18 5 -4 14 2 20 11 6 11 11 13 11 5 0 -7 4
-10 10 -7 5 3 7 0 4 -8 -3 -8 1 -14 10 -14 8 0 13 4 10 9 -3 4 2 5 10 2 9 -3
13 -10 10 -15 -7 -13 10 -11 23 2 8 8 15 4 27 -12 9 -13 16 -18 16 -11 0 6 5
12 11 12 6 0 9 -6 6 -14 -4 -10 3 -13 29 -12 19 1 34 -2 34 -7 0 -4 4 -6 9 -3
15 9 42 -5 34 -18 -4 -6 1 -5 10 3 9 7 17 9 17 3 0 -5 9 -12 20 -15 11 -3 20
0 20 5 0 7 4 7 13 1 18 -14 59 -14 51 0 -4 7 4 3 17 -9 23 -20 35 -21 263 -23
227 -1 238 0 225 16 -13 17 -13 17 5 3 24 -19 47 -22 44 -5 -2 8 2 13 7 12 6
-1 9 -6 7 -10 -1 -5 3 -5 10 -1 7 5 20 9 28 9 8 1 25 2 38 3 16 1 21 6 16 15
-5 8 -2 7 9 -2 15 -12 20 -11 37 4 11 10 32 18 47 19 16 1 34 5 42 10 9 6 12
5 8 -1 -3 -5 0 -10 7 -10 8 0 12 6 9 14 -3 9 4 13 21 14 31 2 33 2 69 17 16 7
33 12 38 12 6 0 7 5 3 11 -4 8 0 8 15 0 18 -10 20 -9 14 5 -4 10 -2 15 3 11 6
-3 11 9 12 29 2 25 -1 34 -13 34 -9 0 -14 4 -11 9 7 10 -20 9 -30 -2 -4 -4
-13 -2 -21 5 -11 9 -13 8 -11 -2 2 -7 -3 -15 -11 -18 -9 -3 -11 0 -7 9 4 8 1
6 -7 -3 -8 -10 -22 -18 -31 -18 -11 0 -15 -4 -10 -12 5 -9 3 -9 -9 1 -14 11
-18 11 -23 -3 -3 -9 -10 -13 -15 -10 -5 3 -9 -1 -9 -8 0 -10 -3 -9 -10 2 -8
12 -10 12 -16 -3 -4 -12 -10 -14 -18 -8 -10 9 -49 -9 -43 -20 1 -2 -4 2 -10
10 -11 13 -13 13 -13 0 0 -11 -9 -15 -35 -13 -26 2 -34 0 -28 -9 5 -8 2 -8 -9
1 -12 10 -18 10 -23 1 -6 -8 -10 -7 -16 2 -7 11 -9 10 -9 -3 0 -9 -5 -20 -12
-24 -6 -4 -8 -3 -4 4 4 7 -1 10 -14 9 -11 -1 -20 -6 -20 -12 0 -6 -3 -7 -8 0
-9 13 -35 18 -27 5 4 -6 -6 -7 -26 -3 -22 4 -30 3 -26 -5 5 -6 0 -8 -13 -5
-11 3 -20 10 -20 16 0 6 -7 2 -16 -9 -8 -10 -13 -14 -10 -8 3 7 -1 15 -10 18
-8 3 -13 2 -10 -3 3 -5 -1 -11 -9 -15 -8 -3 -15 -2 -15 3 0 4 -11 6 -25 3 -14
-2 -33 2 -42 9 -14 12 -15 12 -9 0 7 -10 0 -12 -32 -8 -23 2 -46 -1 -53 -7 -9
-8 -10 -8 -4 3 7 11 2 13 -23 8 -22 -5 -32 -3 -32 6 0 8 -4 7 -10 -3 -5 -8
-10 -10 -10 -4 0 6 -12 12 -26 12 -15 0 -30 5 -34 12 -6 9 -9 9 -13 -1 -4 -10
-6 -10 -6 -1 -1 6 -6 12 -12 12 -5 0 -7 -6 -3 -12 4 -7 -1 -5 -12 4 -15 13
-23 14 -38 6 -15 -9 -18 -8 -14 4 4 8 0 15 -8 15 -7 0 -10 -5 -7 -11 4 -6 -3
-3 -14 7 -11 9 -23 14 -27 10 -4 -4 -11 -1 -16 7 -6 8 -10 10 -10 4 0 -6 -7
-11 -15 -11 -8 0 -12 4 -9 8 2 4 -4 8 -13 8 -40 1 -53 5 -53 14 0 5 -13 7 -29
5 -19 -3 -38 2 -53 15 l-23 18 25 -11 c24 -10 24 -10 6 4 -14 12 -23 13 -33 5
-9 -8 -13 -8 -13 0 0 6 -9 11 -19 11 -11 0 -23 5 -27 12 -5 7 -3 8 6 3 8 -5
11 -4 6 3 -4 6 -13 9 -21 5 -9 -3 -15 1 -15 8 0 11 -3 11 -10 -1 -8 -13 -10
-12 -10 3 0 10 -5 15 -10 12 -5 -3 -10 -2 -10 3 0 6 -7 13 -16 16 -10 4 -13 2
-8 -7 4 -6 -5 0 -21 16 -22 21 -31 25 -42 15 -11 -9 -13 -8 -11 3 2 8 -4 13
-14 13 -10 -1 -16 1 -14 5 3 4 1 13 -5 21 -7 13 -9 13 -9 0 -1 -12 -3 -11 -11
3 -6 9 -14 15 -20 12 -5 -4 -9 -1 -9 4 0 6 -7 11 -16 11 -8 0 -12 4 -9 10 3 5
-3 10 -14 10 -12 0 -21 7 -21 16 0 8 -5 12 -10 9 -6 -3 -10 -1 -10 5 0 6 -7
10 -16 8 -10 -2 -19 4 -21 12 -4 13 -3 13 7 0 10 -13 11 -13 7 0 -2 8 -11 14
-21 12 -9 -2 -16 2 -16 8 0 6 -5 8 -10 5 -6 -3 -10 3 -10 13 0 11 -7 23 -16
26 -10 4 -13 2 -8 -6 4 -7 3 -8 -4 -4 -7 4 -12 14 -12 22 0 8 -4 13 -9 10 -5
-3 -12 5 -15 19 -4 14 -11 25 -17 25 -8 0 -7 -6 2 -17 7 -10 0 -6 -17 10 -32
29 -80 36 -103 15 -11 -10 -13 -10 -7 0 4 6 2 12 -3 12 -6 0 -11 -4 -11 -10 0
-5 -9 -10 -21 -10 -13 0 -18 -4 -13 -12 5 -8 0 -7 -11 2 -11 9 -16 10 -11 2 5
-8 -1 -12 -23 -12 -16 0 -37 -3 -47 -7 -13 -5 -15 -3 -10 8 4 8 0 5 -8 -5 -9
-11 -16 -15 -16 -9 0 5 -18 10 -40 10 -25 0 -48 7 -62 19 -12 10 -18 14 -15 7
4 -6 3 -14 -3 -18 -5 -3 -10 -1 -10 6 0 7 -3 9 -7 6 -3 -4 -12 1 -20 11 -8 9
-12 11 -8 4 3 -6 2 -12 -4 -12 -5 0 -11 3 -13 8 -1 4 -16 15 -33 24 -19 11
-29 24 -27 35 2 12 0 14 -5 6 -12 -17 -76 34 -69 54 3 8 1 11 -4 8 -6 -3 -10
-1 -10 5 0 6 -4 9 -9 6 -5 -3 -11 1 -14 9 -4 9 -1 13 11 9 9 -2 5 2 -10 9 -23
11 -26 15 -15 26 9 11 9 13 0 7 -8 -4 -13 -1 -13 8 0 9 -4 16 -10 16 -5 0 -10
9 -10 21 0 11 -5 30 -11 41 -9 16 -8 19 3 13 10 -6 11 -5 1 6 -17 17 -17 32
-1 23 10 -6 10 -4 2 7 -16 20 -17 112 -1 103 9 -5 9 -3 -1 7 -16 17 -16 32 1
23 9 -6 9 -5 0 7 -7 9 -8 20 -3 29 5 8 6 18 3 24 -4 5 1 7 12 2 15 -5 16 -4 5
9 -10 12 -10 15 0 15 8 0 10 3 7 7 -4 3 1 12 11 20 11 10 12 12 2 8 -10 -4 -9
-2 2 8 10 8 15 17 11 20 -3 4 -1 7 6 7 8 0 11 6 7 16 -3 8 -2 13 2 11 10 -5
52 40 44 48 -3 3 3 8 15 11 12 3 24 12 27 20 3 8 10 14 16 14 6 0 8 -5 4 -12
-4 -7 -3 -8 5 -4 9 6 9 11 -1 24 -11 13 -11 14 0 8 7 -4 19 -2 27 4 8 6 19 9
25 5 6 -4 9 -1 8 6 -2 8 8 13 29 12 18 0 32 2 31 6 -2 20 4 22 17 5 13 -16 14
-16 9 -1 -4 10 -1 17 7 18 45 3 152 0 156 -5 4 -3 12 -1 20 6 11 9 12 7 7 -8
-6 -16 -4 -17 6 -7 11 10 18 9 37 -9 22 -21 24 -21 18 -3 -6 19 -6 19 8 2 8
-10 19 -16 23 -15 5 2 19 -5 32 -14 17 -11 20 -17 10 -21 -8 -4 -7 -6 5 -6 10
-1 28 -11 40 -22 12 -12 16 -18 8 -14 -9 5 -12 4 -7 -3 4 -6 13 -9 20 -6 8 3
17 0 22 -7 5 -8 3 -10 -7 -5 -8 4 -3 -1 10 -12 15 -12 21 -24 16 -32 -5 -8 -4
-11 1 -7 6 3 16 2 24 -4 11 -6 12 -9 2 -9 -7 0 -10 -5 -7 -10 4 -6 11 -8 16
-5 5 3 6 -2 2 -11 -4 -12 -3 -15 5 -10 8 5 12 0 12 -13 0 -11 5 -23 10 -26 6
-3 10 -12 10 -18 0 -7 -4 -6 -10 3 -5 8 -10 10 -10 4 0 -6 7 -17 15 -24 12
-10 12 -17 3 -34 -10 -19 -9 -20 5 -8 13 11 15 11 13 -2 -1 -9 -5 -18 -9 -22
-3 -4 -2 -14 3 -23 5 -10 5 -23 0 -31 -5 -8 -5 -21 1 -31 6 -12 5 -20 -1 -24
-6 -4 -8 -11 -5 -16 4 -5 -2 -9 -12 -9 -15 0 -16 -2 -3 -10 13 -8 12 -11 -5
-25 -11 -9 -15 -14 -8 -11 6 4 14 2 18 -4 3 -5 2 -10 -3 -10 -5 0 -12 -9 -15
-21 -3 -12 -10 -18 -16 -14 -15 9 -14 -8 2 -24 6 -7 8 -12 2 -11 -22 5 -29 -1
-15 -10 13 -8 12 -10 -2 -10 -10 0 -18 -5 -18 -11 0 -5 -4 -7 -10 -4 -5 3 -10
-1 -10 -10 0 -10 -5 -13 -12 -9 -7 4 -8 3 -4 -4 4 -6 -1 -24 -11 -39 -10 -15
-12 -24 -5 -20 8 6 12 2 12 -12 0 -24 16 -36 26 -20 5 8 3 9 -6 4 -9 -5 -11
-4 -6 4 4 6 13 8 19 4 22 -14 36 -11 29 5 -5 15 -4 16 13 2 10 -8 16 -10 12
-3 -4 6 0 18 8 26 8 9 15 20 15 26 0 5 7 14 16 19 9 5 15 12 15 15 -3 19 0 27
10 27 5 0 7 -6 3 -12 -4 -7 -3 -9 1 -5 13 12 15 38 2 30 -6 -4 -1 7 11 24 25
35 28 47 10 38 -7 -4 -6 -1 3 7 9 7 14 19 11 27 -3 9 0 11 8 6 9 -6 9 -3 1 14
-10 18 -9 20 6 14 16 -6 16 -5 4 10 -12 15 -11 17 3 17 10 0 14 5 11 10 -4 6
-11 8 -16 5 -16 -11 -10 7 9 22 9 8 12 12 6 9 -7 -3 -11 4 -11 19 0 14 3 22 8
19 5 -3 6 2 3 10 -3 9 -13 12 -22 9 -13 -4 -12 -2 3 10 15 13 16 16 5 17 -13
0 -13 1 0 10 9 6 11 10 3 10 -7 0 -10 7 -7 15 4 8 11 12 18 8 6 -3 7 -2 3 3
-5 5 -13 9 -19 9 -6 0 -13 11 -15 25 -2 13 -9 28 -16 32 -9 6 -9 8 1 8 6 0 12
5 12 11 0 5 -4 7 -10 4 -5 -3 -10 3 -10 15 0 13 -4 19 -11 14 -8 -4 -9 0 -4
15 4 15 3 21 -7 19 -7 -2 -14 7 -16 20 -2 12 -8 20 -13 17 -5 -4 -9 1 -9 9 0
9 -5 16 -11 16 -5 0 -7 5 -4 10 3 6 -1 10 -9 10 -8 0 -18 5 -22 12 -5 7 -2 9
7 4 8 -4 5 0 -5 8 -11 9 -23 16 -28 16 -4 0 -8 7 -8 15 0 8 -6 14 -12 12 -7
-1 -12 4 -10 12 2 8 -3 11 -13 8 -8 -4 -15 -2 -15 3 0 5 -7 7 -15 4 -10 -4
-13 -2 -10 8 4 9 -2 14 -15 16 -47 4 -50 5 -40 17 7 8 1 11 -20 9 -17 -1 -30
2 -30 7 0 5 -11 7 -24 5 -18 -3 -23 -1 -19 10 3 8 0 14 -6 14 -6 0 -11 -4 -11
-8 0 -5 -7 -9 -15 -9 -8 0 -15 4 -15 9 0 4 -5 8 -11 8 -5 0 -7 -6 -3 -12 6 -9
3 -9 -9 1 -9 7 -23 11 -31 8 -8 -3 -17 -1 -20 6 -3 9 -5 9 -5 0z m670 -1210
c13 -16 12 -17 -3 -4 -10 7 -18 15 -18 17 0 8 8 3 21 -13z"/>
<path d="M160 1380 c-9 -6 -10 -10 -3 -10 6 0 15 5 18 10 8 12 4 12 -15 0z"/>
<path d="M3816 1232 c-3 -5 1 -9 9 -9 8 0 12 4 9 9 -3 4 -7 8 -9 8 -2 0 -6 -4
-9 -8z"/>
<path d="M215 701 c-3 -5 -2 -12 3 -15 5 -3 9 1 9 9 0 17 -3 19 -12 6z"/>
<path d="M2640 100 c-9 -6 -10 -10 -3 -10 6 0 15 5 18 10 8 12 4 12 -15 0z"/>
</g>
</svg>
