<?xml version="1.0" standalone="no"?>
<!DOCTYPE svg PUBLIC "-//W3C//DTD SVG 20010904//EN"
 "http://www.w3.org/TR/2001/REC-SVG-20010904/DTD/svg10.dtd">
<svg version="1.0" xmlns="http://www.w3.org/2000/svg"
 width="1024.000000pt" height="1024.000000pt" viewBox="0 0 1024.000000 1024.000000"
 preserveAspectRatio="xMidYMid meet">
<metadata>
Created by potrace 1.11, written by Peter Selinger 2001-2013
</metadata>
<g transform="translate(0.000000,1024.000000) scale(0.100000,-0.100000)"
fill="#000000" stroke="none">
<path d="M4765 10234 c-677 -55 -1253 -205 -1836 -480 -984 -463 -1813 -1251
-2327 -2211 -311 -581 -498 -1183 -578 -1863 -25 -213 -30 -757 -9 -999 94
-1089 515 -2086 1235 -2921 96 -112 359 -378 470 -476 479 -424 1029 -752
1635 -977 377 -139 770 -231 1220 -284 216 -25 874 -25 1090 0 651 77 1192
236 1750 514 680 340 1281 834 1760 1448 101 129 309 438 390 579 370 647 594
1362 660 2113 19 219 19 667 0 886 -86 972 -432 1876 -1017 2649 -221 294
-520 607 -801 841 -781 651 -1707 1045 -2727 1163 -129 15 -791 28 -915 18z
m615 -348 c63 -4 129 -8 145 -10 17 -2 64 -6 105 -10 106 -10 190 -23 160 -26
-14 -1 -32 -3 -40 -5 -8 -2 -25 -6 -37 -9 -53 -13 -69 -17 -90 -22 -12 -2 -34
-9 -48 -14 -14 -5 -25 -7 -25 -4 0 4 -6 1 -13 -5 -8 -6 -22 -12 -33 -14 -10
-2 -32 -10 -49 -16 -16 -7 -34 -14 -40 -15 -5 -1 -20 -7 -32 -14 -12 -7 -28
-12 -37 -12 -8 0 -22 -7 -31 -16 -9 -9 -19 -14 -22 -10 -4 3 -15 -1 -25 -11
-10 -9 -18 -12 -18 -8 0 4 -9 0 -20 -10 -11 -10 -20 -15 -20 -11 0 4 -15 -3
-32 -16 -18 -13 -34 -21 -35 -18 -1 3 -12 -3 -23 -12 -11 -10 -25 -18 -30 -18
-6 0 -10 -5 -10 -11 0 -5 -4 -8 -8 -5 -5 3 -18 -4 -30 -14 -12 -11 -26 -20
-32 -20 -5 0 -10 -5 -10 -11 0 -5 -4 -8 -9 -5 -5 3 -12 -1 -15 -10 -4 -9 -9
-14 -13 -11 -3 4 -11 1 -17 -7 -6 -7 -46 -41 -89 -75 -124 -100 -284 -265
-362 -375 -11 -16 -25 -33 -31 -40 -15 -16 -124 -181 -155 -236 -214 -370
-360 -786 -468 -1325 -30 -154 -31 -158 -35 -190 -3 -25 -16 -115 -31 -215
-10 -62 -42 -345 -50 -435 -3 -38 -8 -90 -10 -115 -14 -156 -19 -251 -29 -500
-20 -544 -18 -506 -31 -600 -13 -106 -15 -115 -20 -140 -2 -13 -7 -40 -10 -60
-7 -50 -15 -86 -38 -172 -8 -31 -12 -59 -9 -62 3 -3 0 -6 -6 -6 -7 0 -11 -3
-10 -7 2 -12 -12 -66 -23 -85 -5 -10 -9 -24 -9 -32 0 -7 -7 -27 -15 -42 -8
-16 -15 -37 -15 -46 0 -10 -5 -18 -12 -18 -6 0 -9 -3 -5 -6 3 -4 0 -19 -9 -35
-8 -16 -15 -32 -15 -36 0 -5 -7 -15 -15 -24 -8 -9 -11 -19 -7 -22 3 -4 1 -7
-6 -7 -7 0 -9 -4 -6 -10 3 -6 1 -10 -6 -10 -7 0 -10 -3 -6 -6 3 -3 -5 -24 -19
-45 -13 -21 -24 -42 -24 -46 0 -10 -78 -129 -129 -197 -67 -89 -202 -226 -290
-296 -44 -34 -82 -62 -85 -61 -3 0 -16 -10 -30 -22 -13 -13 -37 -29 -53 -37
-15 -8 -30 -18 -33 -21 -10 -13 -196 -109 -270 -139 -175 -72 -418 -142 -580
-166 -19 -3 -46 -7 -60 -9 -14 -3 -50 -7 -80 -11 -30 -3 -64 -8 -75 -10 -81
-15 -534 -22 -680 -10 -307 25 -375 33 -390 47 -5 5 -5 9 -1 9 5 0 3 7 -4 15
-7 8 -9 15 -5 15 4 0 3 6 -2 13 -10 12 -27 71 -21 73 2 0 -3 8 -11 17 -7 10
-11 17 -8 17 3 0 -1 16 -9 35 -8 19 -14 36 -13 37 0 2 -2 10 -5 18 -2 8 -8 29
-12 45 -4 17 -9 36 -11 43 -1 6 -5 20 -7 30 -3 9 -5 19 -6 22 -1 3 -3 10 -5
15 -1 6 -3 12 -4 15 -2 3 -4 14 -6 25 -5 27 -13 60 -15 60 -1 0 -3 9 -4 20 -2
11 -6 34 -10 50 -9 44 -16 77 -22 105 -2 14 -9 49 -15 79 -12 57 -12 61 -24
156 -4 33 -9 68 -11 78 -2 10 -6 48 -9 85 -4 37 -9 83 -11 102 -21 183 -21
634 1 835 3 35 14 123 21 180 3 22 7 56 9 75 2 19 7 51 10 70 4 19 8 44 10 55
1 11 6 36 10 55 3 19 8 46 10 60 2 14 7 36 10 50 3 14 8 34 10 45 2 11 6 30 9
43 3 12 9 32 12 45 3 12 6 27 8 32 2 6 7 28 11 50 12 55 12 54 15 60 1 3 4 10
5 15 1 6 3 11 4 13 2 1 4 12 7 24 2 12 12 48 23 80 10 32 24 78 31 103 8 25
17 49 22 55 4 5 8 17 8 27 0 10 4 26 9 36 9 16 23 51 25 62 4 17 71 177 79
188 5 6 7 12 3 12 -4 0 1 15 11 33 9 17 18 35 19 40 1 4 3 10 4 15 1 4 2 10 1
15 0 4 4 7 9 7 6 0 10 9 10 20 0 11 5 20 11 20 5 0 7 5 4 10 -3 6 -3 10 2 10
4 0 19 27 33 60 14 33 29 60 33 60 5 0 5 5 2 10 -3 6 -1 10 6 10 7 0 9 3 6 7
-4 3 -3 11 2 17 5 6 30 52 56 101 26 50 52 92 56 93 5 2 9 9 9 14 0 13 61 112
72 116 5 2 6 8 2 13 -3 5 0 9 7 9 7 0 10 3 6 6 -5 6 0 14 29 47 6 7 15 23 18
35 4 12 11 22 14 22 4 0 16 16 26 35 11 19 23 35 28 35 4 0 8 7 8 15 0 9 7 18
15 21 8 4 12 10 9 15 -3 5 0 9 5 9 6 0 11 5 11 11 0 7 10 20 22 30 11 11 17
19 13 19 -4 0 2 9 15 20 13 11 20 20 17 20 -4 0 1 9 10 19 38 41 63 73 63 81
0 5 8 14 17 19 10 6 14 11 10 11 -5 0 10 17 32 38 23 21 41 43 41 48 0 6 16
25 36 42 20 18 33 32 29 32 -4 0 9 15 29 34 20 19 36 40 36 46 0 6 4 9 9 6 4
-3 17 4 27 17 19 21 19 21 -1 7 -11 -8 32 37 95 100 63 64 118 115 121 114 3
-2 21 15 39 37 19 21 38 39 41 39 4 0 26 17 48 38 76 70 111 100 111 94 0 -3
8 3 19 14 24 25 60 54 66 54 5 0 13 6 69 57 13 12 27 19 30 16 3 -4 6 -1 6 5
0 7 6 12 14 12 8 0 17 7 20 16 3 8 10 12 16 9 6 -3 13 0 16 8 3 8 21 23 40 33
19 10 34 23 34 28 0 5 3 7 6 3 3 -3 15 3 27 14 11 10 33 25 49 31 15 7 28 16
28 20 0 5 7 8 15 8 8 0 15 5 15 10 0 6 7 10 15 10 8 0 15 5 15 10 0 6 6 10 14
10 7 0 19 7 26 15 7 8 16 12 21 10 4 -3 11 0 16 7 4 7 24 21 43 32 19 10 62
32 95 50 33 17 62 34 63 39 2 4 12 7 23 7 10 0 19 5 19 11 0 5 5 7 10 4 6 -3
10 -2 10 3 0 9 37 25 53 23 4 -1 7 3 7 9 0 5 9 10 20 10 11 0 20 3 20 8 0 8
49 32 67 32 7 0 13 5 13 10 0 6 7 10 15 10 18 0 88 32 97 45 4 6 8 7 8 2 0 -4
19 2 43 14 23 12 42 21 42 20 0 -1 16 4 35 13 19 8 38 12 42 10 5 -3 8 0 8 7
0 7 3 9 7 6 3 -4 12 -2 20 4 7 6 13 8 13 4 0 -4 7 -2 15 5 8 7 15 9 15 4 0 -5
4 -4 8 1 4 6 32 18 62 28 131 43 244 77 264 81 12 2 33 9 49 15 15 6 27 8 27
5 0 -2 8 0 18 5 9 5 33 12 52 15 39 7 64 13 68 16 1 2 10 3 20 4 9 1 26 5 37
9 11 3 36 9 55 12 29 4 59 11 100 20 3 1 30 5 60 10 74 12 74 12 80 14 3 1 21
4 40 6 19 2 51 6 70 9 19 2 64 7 100 11 36 3 83 8 105 10 22 3 89 7 150 10 60
4 111 7 112 8 3 4 304 -1 413 -7z m685 -86 c0 -2 27 -8 115 -25 53 -10 66 -14
93 -24 15 -6 27 -9 27 -6 0 2 18 -2 40 -10 22 -8 40 -12 40 -10 0 2 16 -3 35
-11 19 -8 35 -11 35 -8 0 4 7 1 15 -6 8 -7 15 -10 15 -7 0 3 26 -3 58 -14 31
-11 68 -23 82 -25 13 -3 30 -10 37 -16 7 -6 13 -7 13 -3 0 4 7 2 15 -5 8 -7
15 -9 15 -5 0 4 6 2 13 -4 8 -6 17 -8 20 -4 4 3 7 0 7 -7 0 -7 3 -10 7 -7 3 4
11 2 18 -3 6 -5 22 -12 36 -14 13 -3 26 -5 29 -6 3 -2 8 -2 13 -1 4 0 7 -4 7
-9 0 -5 3 -9 8 -8 9 2 38 -9 79 -29 17 -8 35 -15 40 -15 4 0 17 -5 28 -11 11
-6 22 -12 25 -12 3 -1 28 -12 55 -25 28 -13 53 -23 58 -22 4 1 7 -3 7 -9 0 -5
5 -7 10 -4 6 3 10 1 10 -5 0 -6 5 -8 10 -5 6 3 10 1 10 -4 0 -6 9 -11 20 -11
11 0 20 -5 20 -11 0 -5 5 -7 10 -4 6 3 10 1 10 -5 0 -6 5 -8 10 -5 6 3 10 1
10 -5 0 -6 5 -8 10 -5 6 3 10 1 10 -5 0 -6 5 -8 10 -5 6 3 10 1 10 -5 0 -6 4
-9 9 -6 5 3 14 -1 21 -9 7 -8 20 -15 29 -15 10 0 27 -9 38 -19 12 -11 24 -17
27 -14 3 4 6 1 6 -6 0 -7 5 -9 10 -6 6 3 10 1 10 -4 0 -6 6 -11 14 -11 8 0 21
-7 29 -15 8 -8 21 -16 28 -17 8 -2 20 -9 27 -16 8 -7 17 -10 22 -7 4 3 10 -2
14 -10 3 -8 12 -15 21 -15 8 0 15 -4 15 -10 0 -5 7 -10 15 -10 8 0 15 -5 15
-11 0 -5 4 -8 8 -5 5 3 20 -6 34 -19 15 -14 33 -26 40 -27 7 -2 21 -12 31 -22
9 -10 17 -15 17 -10 0 5 7 0 15 -10 8 -11 15 -17 15 -13 0 8 12 -1 47 -33 9
-8 20 -15 25 -15 5 0 13 -7 18 -15 5 -8 10 -12 10 -8 0 8 27 -12 62 -44 10
-10 22 -18 28 -18 5 0 14 -8 19 -17 6 -10 11 -15 11 -11 0 4 17 -9 38 -27 20
-19 40 -35 44 -35 3 0 26 -18 50 -40 82 -75 87 -80 98 -80 6 0 8 -4 5 -10 -3
-5 -1 -10 6 -10 6 0 43 -33 82 -72 39 -40 66 -66 62 -58 -12 20 144 -139 169
-173 11 -14 23 -24 28 -21 4 3 8 0 8 -7 0 -12 26 -42 88 -101 17 -18 32 -38
32 -45 0 -7 7 -13 17 -13 9 0 14 -3 10 -6 -3 -4 -1 -12 6 -20 7 -7 26 -29 42
-49 17 -20 40 -47 51 -60 12 -13 20 -26 17 -29 -3 -2 5 -9 16 -16 12 -6 19
-15 16 -21 -4 -5 -1 -9 5 -9 6 0 15 -11 20 -25 5 -14 14 -25 20 -25 5 0 10 -5
10 -11 0 -6 10 -20 23 -31 12 -11 15 -16 7 -12 -8 5 2 -12 23 -36 20 -24 37
-50 37 -57 0 -7 5 -13 10 -13 6 0 10 -5 10 -10 0 -6 9 -20 20 -32 11 -12 20
-28 20 -35 0 -7 5 -13 10 -13 6 0 10 -6 10 -13 0 -7 8 -22 18 -33 22 -25 52
-74 59 -96 3 -10 10 -18 15 -18 5 0 7 -4 3 -9 -3 -6 1 -13 9 -18 8 -4 15 -11
15 -16 1 -13 33 -72 43 -78 5 -3 10 -10 11 -15 2 -21 22 -64 30 -64 4 0 5 -4
2 -10 -3 -5 -1 -10 5 -10 6 0 8 -4 5 -10 -3 -6 -1 -10 5 -10 6 0 8 -4 5 -10
-3 -5 -2 -10 3 -10 9 0 25 -37 23 -52 -1 -5 4 -8 10 -8 5 0 7 -4 4 -10 -3 -5
-1 -10 4 -10 6 0 11 -6 11 -14 0 -8 11 -33 24 -57 14 -24 23 -46 20 -51 -3 -4
0 -8 6 -8 6 0 8 -4 5 -10 -3 -5 -2 -10 4 -10 5 0 13 -15 16 -32 4 -18 10 -35
14 -38 5 -5 29 -61 35 -85 1 -5 10 -27 19 -49 9 -21 17 -44 17 -52 0 -7 5 -16
10 -19 6 -3 10 -12 10 -19 0 -8 8 -31 17 -52 9 -22 16 -43 15 -47 -1 -4 5 -21
13 -37 9 -17 13 -30 10 -30 -4 0 -3 -6 2 -12 4 -7 9 -19 10 -25 4 -17 9 -35
15 -53 19 -55 54 -185 64 -233 2 -10 6 -28 10 -40 4 -12 8 -29 10 -37 2 -16
11 -61 19 -97 3 -13 7 -33 10 -45 6 -25 12 -58 19 -103 3 -16 8 -48 11 -70 4
-22 8 -51 10 -65 1 -14 6 -50 10 -80 12 -95 14 -113 21 -190 12 -136 13 -173
14 -390 1 -261 -9 -440 -35 -619 -2 -20 -7 -54 -10 -76 -2 -22 -7 -51 -9 -64
-3 -12 -7 -42 -10 -66 -3 -23 -10 -64 -17 -91 -6 -27 -13 -58 -15 -69 -1 -11
-5 -31 -9 -45 -3 -14 -8 -38 -11 -54 -2 -16 -7 -32 -9 -36 -2 -3 -6 -17 -9
-31 -3 -13 -7 -34 -10 -47 -4 -12 -8 -31 -10 -42 -3 -11 -7 -24 -10 -28 -3 -5
-7 -20 -10 -34 -6 -33 -38 -143 -51 -178 -1 -3 -6 -20 -10 -38 -4 -18 -12 -35
-16 -38 -5 -3 -9 -11 -9 -19 0 -8 -5 -26 -11 -42 -6 -15 -10 -29 -10 -30 1 -2
-10 -27 -23 -57 -13 -30 -22 -57 -18 -60 3 -3 -1 -6 -8 -6 -7 0 -10 -3 -7 -7
4 -3 0 -17 -8 -30 -9 -13 -13 -23 -9 -23 3 0 -1 -11 -10 -25 -9 -14 -14 -25
-11 -25 3 0 -5 -19 -17 -42 -12 -24 -23 -49 -24 -56 -1 -7 -12 -28 -23 -48
-12 -19 -21 -42 -21 -50 0 -8 -4 -14 -10 -14 -5 0 -10 -9 -10 -20 0 -11 -4
-20 -10 -20 -5 0 -10 -9 -10 -20 0 -11 -5 -20 -11 -20 -5 0 -7 -4 -4 -10 3 -5
1 -10 -4 -10 -6 0 -10 -3 -9 -7 3 -11 -49 -110 -62 -118 -6 -4 -8 -10 -5 -15
3 -4 -2 -13 -10 -20 -8 -7 -15 -19 -15 -26 0 -8 -5 -14 -11 -14 -5 0 -7 -5 -4
-10 3 -6 1 -10 -4 -10 -6 0 -11 -6 -11 -14 0 -7 -7 -19 -15 -26 -8 -7 -13 -16
-10 -20 2 -4 -4 -16 -15 -27 -10 -12 -16 -23 -13 -27 3 -3 -2 -8 -11 -12 -9
-3 -13 -10 -10 -15 3 -5 0 -9 -5 -9 -6 0 -11 -7 -11 -15 0 -8 -4 -15 -10 -15
-5 0 -10 -6 -10 -13 0 -7 -9 -23 -20 -35 -11 -12 -20 -26 -20 -32 0 -5 -4 -10
-10 -10 -5 0 -10 -6 -10 -13 0 -7 -11 -24 -25 -39 -14 -15 -25 -30 -24 -34 0
-3 -11 -19 -25 -35 -14 -16 -24 -29 -21 -29 6 0 -7 -17 -42 -54 -12 -13 -20
-26 -17 -29 2 -2 -4 -10 -13 -18 -16 -13 -17 -12 -4 4 7 9 10 17 7 17 -4 0 -2
9 4 21 6 11 13 29 16 40 2 10 6 28 9 39 13 54 33 151 40 200 24 157 23 419 -1
570 -12 73 -46 234 -55 257 -5 13 -7 23 -4 23 8 0 -93 285 -134 378 -69 158
-178 353 -282 507 -41 62 -141 198 -149 205 -3 3 -13 14 -21 26 -75 109 -375
432 -531 571 -25 23 -44 44 -41 47 3 3 -6 10 -21 16 -15 5 -29 16 -32 24 -3 9
-15 18 -26 22 -11 3 -17 8 -14 12 3 3 -3 10 -13 16 -10 6 -87 66 -171 134
-135 109 -320 248 -368 277 -9 6 -19 12 -22 15 -16 16 -222 150 -231 150 -6 0
-7 5 -4 10 6 9 -8 14 -27 11 -5 0 -8 4 -8 9 0 6 -7 10 -15 10 -8 0 -15 4 -15
9 0 5 -13 14 -30 21 -16 7 -30 15 -30 19 0 3 -18 15 -40 25 -22 11 -40 23 -40
28 0 4 -3 8 -7 7 -18 -3 -52 14 -57 27 -3 8 -10 14 -17 14 -6 0 -23 9 -39 20
-15 11 -30 17 -34 13 -3 -3 -6 -1 -6 6 0 7 -4 9 -10 6 -5 -3 -10 -2 -10 3 0
10 -50 37 -63 34 -4 -1 -10 5 -13 13 -3 8 -10 12 -15 9 -5 -3 -9 0 -9 5 0 6
-9 11 -20 11 -11 0 -20 4 -20 8 0 5 -16 14 -35 22 -19 8 -35 18 -35 22 0 5 -4
6 -10 3 -5 -3 -10 -1 -10 5 0 6 -4 8 -10 5 -5 -3 -10 -1 -10 5 0 6 -4 9 -9 6
-5 -3 -14 1 -21 9 -7 8 -18 15 -25 15 -6 0 -21 8 -33 18 -11 9 -30 24 -43 32
-12 8 -29 23 -38 33 -8 9 -20 17 -26 17 -5 0 -21 14 -34 30 -13 17 -28 30 -33
30 -5 0 -29 20 -53 44 -24 24 -46 42 -49 39 -6 -6 -10 13 -7 30 1 5 -3 6 -9 2
-11 -7 -80 61 -80 78 0 4 -4 5 -10 2 -5 -3 -10 -1 -10 5 0 6 -12 22 -26 35
-15 14 -23 29 -18 36 4 8 3 9 -5 5 -6 -4 -18 0 -27 8 -8 9 -12 16 -8 16 4 0
-1 8 -12 19 -10 10 -26 28 -34 41 -14 20 -36 48 -60 77 -5 7 -10 17 -10 23 0
6 -7 13 -15 16 -8 4 -12 10 -9 15 3 5 1 9 -4 9 -5 0 -12 8 -16 18 -5 17 -26
52 -36 62 -19 18 -137 272 -145 311 -2 9 -13 46 -24 83 -11 36 -27 103 -35
149 -9 45 -18 96 -21 112 -10 53 -13 347 -4 425 15 135 20 164 45 279 71 317
212 668 399 989 33 56 67 116 76 132 9 16 19 27 23 23 3 -3 6 1 6 10 0 9 5 17
11 17 5 0 8 4 5 8 -3 5 2 18 12 28 9 10 23 31 31 47 8 15 18 27 23 27 5 0 6 5
3 10 -3 6 -2 10 2 10 5 0 17 16 27 35 11 19 23 35 28 35 5 0 7 4 3 9 -3 6 3
14 12 20 10 6 14 11 9 11 -5 0 1 9 13 19 12 11 22 22 21 25 0 4 9 19 20 34 14
19 29 28 43 26 12 -1 22 -3 22 -4z m-840 -4010 c0 -2 9 -4 20 -6 25 -4 59 -12
63 -14 1 -2 5 -3 10 -4 32 -7 89 -31 100 -43 8 -7 18 -11 23 -8 5 4 9 2 9 -3
0 -5 8 -12 18 -16 24 -8 54 -28 73 -48 9 -10 22 -18 29 -18 7 0 11 -3 7 -6 -3
-3 5 -17 18 -30 13 -13 30 -24 36 -24 7 0 9 -3 6 -6 -4 -4 3 -15 15 -25 11
-11 17 -19 12 -19 -5 0 -1 -5 9 -11 9 -5 17 -17 17 -24 0 -8 5 -15 11 -15 5 0
7 -4 4 -10 -3 -5 -1 -10 4 -10 6 0 10 -3 9 -7 -1 -5 8 -27 20 -50 12 -24 20
-43 16 -43 -4 0 -2 -6 3 -12 23 -29 37 -124 35 -233 -1 -72 -7 -136 -12 -142
-2 -2 -4 -7 -5 -13 -1 -5 -3 -11 -5 -12 -1 -2 -3 -10 -5 -18 -2 -8 -9 -28 -16
-45 -7 -16 -12 -33 -11 -37 1 -5 -3 -8 -9 -8 -5 0 -8 -4 -5 -9 3 -5 -1 -14 -9
-21 -8 -7 -12 -16 -9 -21 3 -5 1 -9 -4 -9 -5 0 -15 -12 -23 -27 -17 -33 -143
-163 -158 -163 -6 0 -11 -3 -11 -8 0 -4 -21 -19 -47 -32 -27 -14 -51 -29 -54
-33 -3 -4 -19 -10 -34 -13 -16 -3 -34 -9 -40 -13 -50 -39 -328 -47 -395 -11
-11 6 -20 8 -20 4 0 -3 -7 -1 -15 6 -8 7 -15 9 -15 5 0 -4 -6 -2 -13 4 -8 6
-17 8 -20 4 -4 -3 -7 -1 -7 6 0 7 -4 9 -10 6 -5 -3 -10 -1 -10 5 0 6 -4 8 -10
5 -5 -3 -10 -1 -10 5 0 6 -4 9 -9 6 -5 -4 -11 -2 -13 3 -1 5 -10 11 -18 13 -8
2 -21 11 -28 21 -7 9 -17 17 -23 17 -11 0 -127 116 -149 150 -8 12 -20 28 -27
35 -7 7 -9 15 -6 19 4 3 1 6 -5 6 -7 0 -12 3 -11 8 2 15 -14 52 -23 52 -5 0
-7 3 -5 8 3 4 0 18 -6 32 -15 38 -16 40 -30 105 -13 58 -14 188 -2 250 3 17 7
38 8 48 1 9 6 17 11 17 5 0 6 3 3 7 -4 3 -2 12 5 20 6 7 8 16 5 19 -3 4 1 13
9 21 8 8 12 19 9 24 -4 5 -1 9 5 9 6 0 8 5 5 10 -3 6 -1 10 5 10 6 0 8 5 5 10
-3 6 -1 10 5 10 6 0 9 4 6 9 -3 5 1 12 10 15 9 4 14 9 11 12 -6 6 10 27 65 84
20 21 34 41 31 44 -4 3 -2 6 4 6 6 0 27 16 48 35 21 19 41 32 45 30 4 -3 15 4
25 15 10 11 22 17 26 14 5 -3 9 -1 9 5 0 5 14 12 30 16 17 4 30 10 30 15 0 4
13 7 29 6 17 -1 28 1 25 5 -9 15 116 34 208 32 51 0 93 -2 93 -3z m1500 -1903
c11 -3 45 -8 75 -13 30 -4 57 -8 60 -9 3 -1 21 -5 40 -9 119 -26 340 -103 340
-118 0 -4 7 -5 15 -2 8 4 15 1 15 -7 0 -7 3 -9 7 -6 3 4 15 -1 26 -10 10 -10
21 -17 23 -16 8 5 74 -31 74 -39 0 -5 4 -7 9 -4 11 7 196 -114 296 -194 76
-61 266 -245 330 -320 127 -148 280 -370 373 -541 77 -140 110 -208 105 -213
-4 -3 -1 -6 5 -6 7 0 12 -4 12 -10 0 -5 13 -37 29 -72 16 -35 36 -81 46 -103
9 -22 23 -52 30 -68 9 -19 10 -25 2 -20 -6 4 -2 -6 11 -21 12 -16 19 -32 17
-36 -3 -5 -1 -11 5 -15 6 -4 8 -11 5 -16 -4 -5 -2 -9 3 -9 18 0 20 -39 4 -62
-9 -13 -44 -50 -77 -82 -33 -33 -53 -56 -45 -51 8 5 -13 -19 -47 -53 -34 -34
-67 -62 -73 -62 -6 0 -9 -3 -7 -7 3 -5 -1 -14 -9 -21 -8 -7 -14 -10 -14 -7 0
3 -25 -18 -55 -47 -106 -103 -145 -138 -145 -131 0 4 -12 -8 -26 -25 -15 -18
-31 -32 -36 -32 -5 0 -19 -11 -32 -25 -13 -13 -26 -22 -29 -19 -3 3 -10 -4
-17 -15 -6 -12 -17 -21 -24 -21 -8 0 -17 -7 -20 -16 -3 -8 -10 -13 -15 -9 -6
3 -15 -4 -21 -15 -6 -11 -15 -20 -21 -20 -5 0 -22 -11 -36 -25 -15 -13 -39
-29 -55 -36 -15 -6 -25 -15 -22 -20 2 -5 -7 -11 -21 -15 -14 -3 -25 -9 -25
-13 0 -4 -12 -14 -27 -22 -16 -8 -37 -22 -47 -32 -11 -9 -25 -17 -32 -17 -6 0
-15 -7 -18 -16 -3 -8 -10 -13 -14 -10 -5 3 -18 -2 -28 -12 -11 -9 -39 -28 -64
-41 -25 -13 -64 -37 -86 -52 -23 -16 -44 -25 -48 -22 -3 4 -6 0 -6 -7 0 -7 -3
-10 -7 -7 -3 4 -12 -1 -20 -11 -8 -9 -12 -11 -8 -4 3 7 -10 1 -31 -13 -20 -14
-43 -25 -50 -25 -7 0 -14 -3 -16 -7 -4 -10 -80 -47 -90 -45 -5 1 -8 -2 -8 -8
0 -6 -3 -9 -7 -8 -5 1 -36 -12 -70 -29 -34 -17 -64 -29 -67 -25 -3 3 -6 0 -6
-7 0 -7 -4 -9 -10 -6 -5 3 -10 2 -10 -3 0 -6 -16 -13 -35 -16 -19 -4 -35 -10
-35 -14 0 -6 -34 -20 -85 -36 -5 -1 -21 -8 -35 -14 -29 -12 -61 -24 -75 -28
-5 -1 -23 -7 -40 -14 -16 -6 -32 -12 -35 -12 -3 0 -14 -5 -25 -11 -11 -6 -24
-10 -29 -9 -4 2 -14 -3 -22 -9 -8 -6 -14 -8 -14 -4 0 4 -7 2 -15 -5 -8 -7 -15
-10 -15 -6 0 3 -17 0 -37 -8 -59 -22 -146 -48 -168 -51 -11 -1 -20 -3 -20 -4
0 -3 -3 -4 -75 -21 -51 -13 -77 -19 -105 -25 -86 -19 -123 -26 -140 -30 -25
-4 -72 -13 -105 -19 -14 -3 -43 -8 -65 -11 -38 -6 -53 -8 -142 -20 -21 -2 -65
-7 -98 -10 -33 -3 -74 -8 -91 -10 -151 -21 -659 -22 -819 -1 -16 3 -61 7 -100
10 -38 4 -81 8 -95 10 -14 3 -45 7 -70 10 -25 3 -55 8 -66 10 -12 2 -39 7 -60
11 -22 3 -52 8 -69 11 -16 4 -41 8 -55 9 -14 2 -25 4 -25 5 0 1 -7 3 -15 5
-65 13 -207 46 -260 60 -14 3 -32 8 -40 10 -8 2 -16 4 -17 4 -2 1 -6 2 -10 2
-5 1 -33 10 -63 21 -30 10 -55 18 -55 18 0 -1 -7 1 -15 4 -52 17 -96 30 -102
32 -5 1 -10 3 -13 4 -3 1 -8 3 -12 5 -5 1 -16 5 -25 8 -18 7 -37 13 -50 16 -4
1 -25 9 -45 18 -49 20 -87 34 -93 35 -3 0 -21 8 -41 19 -20 10 -39 15 -43 12
-3 -4 -6 -1 -6 5 0 7 -7 12 -15 12 -9 0 -27 7 -40 16 -14 9 -25 13 -25 9 0 -4
-6 -2 -14 4 -8 7 -23 14 -35 16 -12 2 -28 11 -37 20 -9 8 -20 13 -25 10 -5 -4
-9 -1 -9 4 0 6 -9 11 -20 11 -11 0 -20 4 -20 10 0 5 -3 10 -7 9 -16 -2 -53 14
-53 22 0 5 -9 9 -20 9 -11 0 -20 5 -20 11 0 5 -4 8 -9 5 -5 -4 -11 -2 -13 3
-1 4 -23 18 -48 29 -25 12 -58 30 -75 39 -16 10 -57 34 -90 52 -33 19 -62 38
-65 41 -3 4 -15 10 -27 14 -13 4 -23 11 -23 15 0 5 -13 14 -30 21 -16 7 -30
17 -30 22 0 5 -5 6 -10 3 -6 -3 -13 1 -16 9 -3 9 -12 16 -20 16 -8 0 -14 5
-14 11 0 5 -4 8 -9 4 -6 -3 -14 3 -20 12 -6 10 -11 14 -11 10 0 -4 -12 4 -27
18 -15 14 -32 25 -38 25 -6 0 -17 9 -25 19 -7 11 -17 18 -22 15 -4 -3 -11 2
-14 10 -3 9 -10 16 -16 16 -5 0 -21 11 -36 25 -15 14 -32 25 -39 25 -7 0 -18
9 -25 20 -7 11 -19 20 -26 20 -7 0 -10 5 -7 10 3 6 -1 10 -10 10 -8 0 -18 7
-21 15 -4 8 -11 15 -18 15 -6 1 -22 14 -36 30 -13 17 -29 30 -34 30 -5 0 -24
13 -40 30 -100 97 -116 112 -116 104 0 -5 -9 6 -20 23 -11 18 -23 33 -28 33
-10 0 -152 136 -152 145 0 4 -25 31 -55 61 -30 30 -55 59 -55 65 0 6 -4 7 -10
4 -5 -3 -10 1 -10 9 0 8 -9 20 -19 26 -11 5 -23 19 -26 30 -4 11 -10 18 -15
15 -5 -3 -11 3 -15 14 -3 11 -13 22 -21 25 -8 3 -12 10 -9 16 3 5 -1 10 -9 10
-9 0 -15 4 -13 9 1 5 -7 17 -18 26 -11 9 -13 13 -5 9 8 -4 5 3 -7 15 -13 12
-23 26 -23 32 0 6 -5 7 -10 4 -5 -3 -10 -1 -10 6 0 6 -8 18 -17 26 -11 9 -12
12 -3 7 9 -4 7 2 -5 13 -11 11 -29 33 -40 48 -11 16 -26 34 -33 42 -7 7 -10
13 -5 13 4 0 3 4 -3 8 -6 4 -25 30 -44 57 -19 28 -38 53 -44 57 -6 4 -7 8 -3
8 7 0 0 10 -30 44 -7 8 -9 16 -6 20 4 3 1 6 -5 6 -7 0 -12 7 -12 15 0 9 -7 18
-15 21 -8 4 -12 10 -9 15 3 5 0 9 -6 9 -6 0 -8 5 -5 10 3 5 1 10 -4 10 -6 0
-11 7 -11 15 0 8 -4 15 -9 15 -5 0 -15 16 -21 35 -6 19 -15 35 -20 35 -4 0
-13 12 -19 28 -13 34 -43 85 -56 94 -5 4 -6 8 -2 8 5 0 1 7 -7 16 -9 8 -14 20
-11 25 4 5 1 9 -5 9 -6 0 -8 5 -5 10 3 6 2 10 -4 10 -5 0 -12 13 -16 30 -4 17
-11 30 -16 30 -6 0 -7 5 -4 10 3 6 1 10 -5 10 -6 0 -8 5 -5 10 3 6 1 10 -5 10
-6 0 -8 5 -5 10 3 6 2 10 -3 10 -9 0 -25 37 -23 53 1 4 -4 7 -9 7 -5 0 -9 3
-8 8 1 4 -5 21 -12 37 -7 17 -14 32 -15 35 -1 3 -11 27 -23 53 -12 27 -22 51
-22 53 0 3 44 -39 98 -93 101 -100 150 -143 165 -143 4 0 6 -4 2 -9 -3 -5 3
-12 13 -15 10 -4 34 -21 52 -39 19 -17 30 -25 26 -17 -4 8 1 6 11 -5 10 -11
34 -29 53 -39 34 -20 47 -28 75 -53 7 -7 21 -13 29 -13 9 0 16 -4 16 -10 0 -5
3 -10 8 -10 4 0 53 -24 110 -54 56 -29 102 -52 102 -51 0 2 39 -12 88 -31 119
-47 307 -101 417 -119 17 -2 41 -7 55 -10 139 -28 473 -39 705 -22 60 5 112
10 115 12 3 1 29 5 58 9 134 16 333 56 507 101 133 35 456 136 510 159 17 8
68 28 115 46 46 17 102 40 125 50 22 10 90 39 150 65 144 62 535 253 559 274
15 13 18 13 11 1 -7 -12 -5 -12 11 1 24 21 87 54 97 51 4 -1 7 2 7 6 0 5 19
17 43 28 23 10 46 24 50 31 5 8 12 11 16 8 5 -2 14 2 21 10 7 8 16 12 21 9 5
-3 9 -1 9 4 0 8 50 36 59 32 2 -1 7 3 10 8 7 11 88 60 114 68 9 4 17 11 17 16
0 5 5 6 10 3 6 -3 13 1 16 9 3 9 10 13 15 10 5 -3 9 -2 9 3 0 4 20 17 45 28
25 11 45 23 45 27 0 5 3 7 8 6 7 -2 138 58 195 88 15 8 27 12 27 8 0 -3 6 -2
13 3 6 6 30 16 52 23 22 7 46 17 53 23 6 5 12 6 12 2 0 -4 7 -2 15 5 8 7 15 9
15 6 0 -4 8 -2 18 3 11 6 30 12 43 15 13 3 60 15 104 26 44 11 96 22 115 25
20 3 47 8 60 10 14 3 54 8 90 11 36 3 66 7 68 9 4 4 315 -3 337 -8z"/>
</g>
</svg>
